<svg width="96" height="96" viewBox="0 0 96 96" fill="none" xmlns="http://www.w3.org/2000/svg">
<path d="M63.9029 95.1518C54.9042 93.4933 51.9231 91.8402 48.8623 89.8803C46.9592 88.6645 44.8831 87.0316 43.1645 85.4012M63.9029 95.1518C72.2672 93.7198 77.119 88.2853 83.4515 91.1634C85.3068 92.0088 86.6961 93.2738 87.7126 94.4925C88.414 95.3333 89.5511 95.7586 90.5038 95.219C91.9233 94.415 93.8312 92.9167 94.7548 90.3634C95.3457 88.7296 95.3289 87.227 95.196 86.1863C95.1222 85.6086 94.7835 85.1081 94.3079 84.772C89.76 81.5575 81.2744 76.5363 70.4369 75.5C59.1168 74.4183 48.4589 77.6629 46.7742 78.3048C45.0895 78.9466 45.6408 81.0664 46.5301 82.1124C47.341 83.066 48.6671 83.1283 53.0716 82.842C54.9982 82.7165 57.349 82.571 60.2158 82.2806M63.9029 95.1518C62.9282 95.3186 61.9059 95.4312 60.8279 95.4698C48.9048 95.9115 36.9596 88.7054 34.3731 84.8798M43.1645 85.4012C40.7135 83.0761 38.9896 80.756 39.5316 79.6578C39.883 78.9448 41.2135 78.7024 42.055 78.7483C43.5896 78.8316 44.5842 79.9272 44.8397 80.2257C46.6319 82.4209 48.6138 84.3154 50.8657 85.6988M43.1645 85.4012C43.1645 85.4012 37.1115 81.167 34.5843 82.5862M50.8657 85.6988C53.1511 87.1028 55.7148 87.9804 58.6405 88.112C62.7732 88.2096 65.7734 85.526 68.1752 82.4282C68.258 82.3213 68.3479 82.2208 68.4489 82.1309C69.1497 81.5067 70.5428 80.4571 72.58 80.0657C76.0954 79.3828 78.806 81.1807 79.3578 81.5643M50.8657 85.6988C53.1734 85.431 55.8007 84.7668 57.7446 84.1395C58.6158 83.8584 59.4834 83.1139 60.2158 82.2806M50.8657 85.6988C50.8424 85.7015 50.8191 85.7041 50.7958 85.7068M60.2158 82.2806C61.1341 81.2358 61.8399 80.0513 62.0741 79.4653M34.3731 84.8798C33.9639 84.2746 33.7889 83.7539 33.8853 83.3616C33.9601 83.0671 34.1795 82.8815 34.3207 82.7658C34.4035 82.698 34.4915 82.6383 34.5843 82.5862M34.3731 84.8798C34.2012 84.7789 32.1496 83.6121 30.5849 84.6035C30.4795 84.6692 29.4409 85.3486 29.5 86.2362C29.5435 86.9387 30.2602 87.5208 31.365 88.0625C34.9527 89.8092 46.7231 93.073 48.6238 93.5975M34.3731 84.8798C34.376 84.8816 34.3784 84.883 34.3803 84.8841M34.5843 82.5862C33.7084 81.9706 32.5914 81.9886 31.8803 82.5829C31.1364 83.2011 31.1576 84.1757 31.1608 84.3059M34.5843 82.5862C34.586 82.5874 34.5877 82.5886 34.5895 82.5899" stroke="#27aae1" stroke-miterlimit="10" stroke-linecap="round" stroke-linejoin="round"/>
<path d="M49.6754 45.4384C39.6752 39.4384 31.1755 50.9383 36.1754 53.9384C23.8336 59.5224 32.1753 72.4385 42.1756 67.9385C56.8175 68.8802 62.1033 66.6227 67.6756 58.9385C82.6756 56.9385 83.9996 48.7269 72.1755 45.4384C69.1756 34.4387 55.6755 33.9385 49.6754 45.4384Z" fill="#27aae1"/>
<path d="M72 76C72 79.866 68.866 83 65 83C61.134 83 58 79.866 58 76C58 72.134 61.134 69 65 69C68.866 69 72 72.134 72 76Z" fill="#27aae1"/>
<path d="M51 35C51 37.2091 49.2091 39 47 39C44.7909 39 43 37.2091 43 35C43 32.7909 44.7909 31 47 31C49.2091 31 51 32.7909 51 35Z" fill="#27aae1"/>
<path d="M50.4713 38.0884C50.4713 38.0884 57.4998 46 50.1771 48.2727C42.8544 50.5455 46.0041 55.6261 46.0041 55.6261M49.9999 69.6894C50.5711 72.2598 52.5461 73.1095 54.9634 73.3293" stroke="#27aae1" stroke-linecap="round" stroke-linejoin="round" stroke-dasharray="2 2"/>
<path d="M10.6493 23.0496C12.7808 22.7897 14.3188 23.0417 15.437 23.4662M15.437 23.4662C15.9557 23.6631 16.3841 23.8971 16.7395 24.1342C17.8647 24.8921 18.4104 25.7861 20.0089 26.4377C21.5042 27.0432 22.7701 26.9656 23.4758 26.9631C26.7318 26.9375 31.9542 26.401 35.178 29.3966C36.9071 31.0047 39.4146 32.8454 40.7696 33.7665C42.1246 34.6876 42.9116 33.4177 42.9909 33.2053C43.3433 32.3637 43.2371 29.6526 40.5915 26.4893C36.9678 22.1692 33.5269 22.8866 32.4093 19.631C31.829 17.9472 32.0395 15.6716 33.3306 14.6527C34.4995 13.7342 36.4808 13.8752 37.8574 14.5904C43.338 17.4395 40.7423 30.0721 44.6774 30.9537C44.8181 30.9855 45.2552 31.0645 45.7092 30.88C48.353 29.8145 47.5666 21.5495 45.9809 16.0639C45.4283 14.1446 45.0512 12.9077 44.0513 11.4701M15.437 23.4662C14.6981 27.2608 14.6552 29.5319 14.0933 32.9507C13.9435 33.8619 13.1639 34.546 12.243 34.4763C7.41857 34.1113 2.83717 31.097 0.707075 26.7435C0.593265 26.5301 0.494558 26.3002 0.499968 26.0626C0.504799 25.7395 0.698379 25.4619 0.886194 25.1973C3.48321 21.5478 5.8909 17.7674 8.09416 13.8724C9.27499 11.7822 11.6828 10.6036 13.9063 9.69898C19.4892 7.44428 25.4246 6.08258 31.4274 5.68019M44.0513 11.4701C41.7368 8.1539 38.1839 6.82017 36.9696 6.36435L36.9553 6.35898C36.1668 6.06119 35.5467 5.92378 35.3486 5.88181C34.2878 5.65609 33.0911 5.57877 31.4274 5.68019M44.0513 11.4701L58.9925 10.9776C58.9925 10.9776 63.2645 10.9486 64.3079 9.47851C65.3513 8.00838 62.5089 7.43609 61.6295 7.37651C42.615 6.06707 44.504 6.05076 41.7384 6.07069C40.0928 6.07952 38.4681 5.91917 35.3192 5.86094M31.4274 5.68019C34.8956 4.5026 52.4709 -0.382229 53.7903 1.05082C55.1097 2.48386 52.6145 3.71395 51.9614 4.04962M34.2666 5.71052C34.2666 5.71052 43.8077 4.20373 51.9614 4.04962M51.9614 4.04962C55.5116 3.98252 58.7988 4.17186 60.9208 4.85368L60.9254 4.85518C61.3801 5.00369 62.3276 5.3132 62.411 5.92154C62.4983 6.54128 61.6888 7.13968 61.43 7.30296M24 37C23.8816 40.8451 23.5818 42.1881 21.6798 44.2845C21.3123 44.6895 21.3123 45.3105 21.6798 45.7155C23.5818 47.8119 23.8816 49.1549 24 53C24.1184 49.1549 24.4181 47.8119 26.3201 45.7155C26.6876 45.3105 26.6876 44.6895 26.3201 44.2845C24.4181 42.1881 24.1184 40.8451 24 37ZM77 34C76.883 37.5613 76.5891 38.8331 74.748 40.7583C74.3526 41.1719 74.3526 41.8282 74.748 42.2417C76.5891 44.167 76.883 45.4388 77 49C77.1169 45.4388 77.4109 44.167 79.2519 42.2417C79.6474 41.8282 79.6474 41.1719 79.2519 40.7583C77.4109 38.8331 77.1169 37.5613 77 34ZM71 22C70.9273 24.2119 70.7523 25.099 69.7362 26.2478C69.3571 26.6764 69.3571 27.3236 69.7362 27.7523C70.7523 28.901 70.9273 29.7882 71 32C71.0726 29.7882 71.2477 28.901 72.2637 27.7523C72.6428 27.3236 72.6428 26.6764 72.2637 26.2478C71.2477 25.099 71.0726 24.2119 71 22ZM70 76C70 78.7614 67.7614 81 65 81C62.2385 81 60 78.7614 60 76C60 73.2386 62.2385 71 65 71C67.7614 71 70 73.2386 70 76ZM50 35C50 36.6569 48.6568 38 47 38C45.3431 38 44 36.6569 44 35C44 33.3432 45.3431 32 47 32C48.6568 32 50 33.3432 50 35ZM31 59C30.9273 61.2119 30.7523 62.099 29.7362 63.2478C29.3571 63.6764 29.3571 64.3236 29.7362 64.7523C30.7523 65.901 30.9273 66.7882 31 69C31.0726 66.7882 31.2477 65.901 32.2637 64.7523C32.6428 64.3236 32.6428 63.6764 32.2637 63.2478C31.2477 62.099 31.0726 61.2119 31 59Z" stroke="#27aae1" stroke-linecap="round" stroke-linejoin="round"/>
</svg>
