<svg width="98" height="97" viewBox="0 0 98 97" fill="none" xmlns="http://www.w3.org/2000/svg">
<path d="M66.331 36.5847L67.8693 32.7054C67.9204 32.5764 67.9934 32.4641 68.0811 32.3709L68.4312 39.3378C67.9317 38.8509 67.3926 38.4044 66.819 38.0038C66.3336 37.6647 66.1375 37.0728 66.331 36.5847ZM64.796 31.3947L63.717 34.1158C63.605 33.7637 63.4659 33.3564 63.2923 32.9335C62.7971 31.727 61.9668 30.2566 60.5289 29.5274C61.7811 29.5942 63.0006 29.7821 64.1762 30.0797C64.7177 30.2167 65.0235 30.821 64.796 31.3947ZM58.07 29.553C57.3982 30.1119 57.1902 30.9618 57.2066 31.9728C57.2224 32.9446 57.446 34.1787 57.7638 35.6782C57.4177 35.5498 57.1481 35.2817 57.0484 34.9404L55.8871 30.9675C55.7135 30.3734 56.0767 29.799 56.6306 29.7151C57.1048 29.6433 57.5848 29.589 58.07 29.553ZM52.6986 31.9638L53.8681 35.9651C54.0161 36.4713 53.7628 37.045 53.2438 37.3364C52.9021 37.5282 52.5701 37.7353 52.2488 37.9567C51.7342 38.3113 51.0713 38.2659 50.6855 37.8711L48.4866 35.6211V33.0158C49.3947 32.3686 50.3621 31.7995 51.3789 31.318C51.8922 31.0749 52.5222 31.3605 52.6986 31.9638ZM59.5001 67.5C58.479 67.5 57.477 67.4195 56.5001 67.2646V60.9411C57.4628 61.1725 58.4674 61.2949 59.5001 61.2949C62.2562 61.2949 64.8099 60.4229 66.8987 58.94L70.6321 63.8991C67.5037 66.1646 63.6585 67.5 59.5001 67.5Z" fill="#27aae1" stroke="#27aae1"/>
<path d="M4.5 19C4.5 17.8954 5.39543 17 6.5 17C7.60457 17 8.5 17.8954 8.5 19V27C7.16424 29.0603 7.71849 32.0144 8.5 37H4.5V19Z" fill="#27aae1"/>
<path d="M10.5 15C10.5 13.8954 11.3954 13 12.5 13C13.6046 13 14.5 13.8954 14.5 15V22C11.8872 22.744 12.9581 28.1241 14.5 37H13.5C12.3205 31.4854 11.6597 28.6524 10.5 27V15Z" fill="#27aae1"/>
<path d="M16.5 9C16.5 7.89543 17.3954 7 18.5 7C19.6046 7 20.5 7.89543 20.5 9V37C19.2555 31.3473 18.7246 28.0808 16.5 23V9Z" fill="#27aae1"/>
<path d="M22.5 13C22.5 11.8954 23.3954 11 24.5 11C25.6046 11 26.5 11.8954 26.5 13V31.5C25.2048 25.8111 24.3738 23.8596 22.5 25V13Z" fill="#27aae1"/>
<path d="M28.5 24C28.5 22.8954 29.3954 22 30.5 22C31.6046 22 32.5 22.8954 32.5 24V37H28.5V24Z" fill="#27aae1"/>
<path d="M34.5 18C34.5 16.8954 35.3954 16 36.5 16C37.6046 16 38.5 16.8954 38.5 18V37H34.5V18Z" fill="#27aae1"/>
<path d="M40.5 11C40.5 9.89543 41.3954 9 42.5 9C43.6046 9 44.5 9.89543 44.5 11V37H40.5V11Z" fill="#27aae1"/>
<path d="M3 47.5C3.27614 47.5 3.5 47.2761 3.5 47C3.5 46.7239 3.27614 46.5 3 46.5V47.5ZM1.5 36.5C1.22386 36.5 1 36.7239 1 37C1 37.2761 1.22386 37.5 1.5 37.5V36.5ZM47.5 37.5C47.7761 37.5 48 37.2761 48 37C48 36.7239 47.7761 36.5 47.5 36.5V37.5ZM7.5 64C7.5 63.7239 7.27614 63.5 7 63.5C6.72386 63.5 6.5 63.7239 6.5 64H7.5ZM94.1024 46.5C93.8263 46.5 93.6024 46.7239 93.6024 47C93.6024 47.2761 93.8263 47.5 94.1024 47.5V46.5ZM42.406 65.9943L41.9087 65.9423L42.406 65.9943ZM43.3348 67.4365L43.4641 66.9535L43.3348 67.4365ZM46.3872 68.2541L46.2578 68.7371H46.2578L46.3872 68.2541ZM47.814 67.3692L48.3079 67.4475L47.814 67.3692ZM40.6953 52.1216L40.4384 52.5506L40.6953 52.1216ZM30.7351 50.1698L30.81 50.6642L30.7351 50.1698ZM32.153 55.5798L32.1088 55.0817H32.1088L32.153 55.5798ZM46.5175 71.5099L46.9678 71.7272L46.5175 71.5099ZM45.7598 69.9495L45.6304 70.4325L45.7598 69.9495ZM42.632 69.1117L42.7614 68.6287L42.632 69.1117ZM41.1755 69.7578L40.7436 69.5059L41.1755 69.7578ZM40.4169 51.4916C40.145 51.4431 39.8854 51.6243 39.8369 51.8961C39.7885 52.168 39.9696 52.4277 40.2415 52.4761L40.4169 51.4916ZM40.7165 58.7058C40.5418 58.4919 40.2268 58.4601 40.0129 58.6348C39.7991 58.8095 39.7673 59.1244 39.9419 59.3383L40.7165 58.7058ZM34.6723 73.8019C34.4009 73.8531 34.2225 74.1146 34.2737 74.386C34.3249 74.6573 34.5864 74.8358 34.8578 74.7845L34.6723 73.8019ZM32.1808 79.4773C31.9051 79.4619 31.6691 79.673 31.6538 79.9487C31.6384 80.2244 31.8495 80.4604 32.1252 80.4757L32.1808 79.4773ZM16.7096 54L16.2185 54.0936C16.2692 54.3599 16.5231 54.5373 16.7906 54.4934C17.0582 54.4495 17.242 54.2002 17.2049 53.9316L16.7096 54ZM13.5772 32.0074L14.0699 31.9219L14.0698 31.9214L13.5772 32.0074ZM18.9314 30.9888L19.4195 30.8804L19.4194 30.8799L18.9314 30.9888ZM23.2096 52.5L22.7183 52.5926C22.7674 52.8534 23.0118 53.0303 23.2749 52.9957C23.538 52.9611 23.7282 52.727 23.7082 52.4624L23.2096 52.5ZM25.7095 27.8098L26.205 27.7427L25.7095 27.8098ZM31.7862 59.9529L31.2929 60.0346C31.3289 60.2518 31.5028 60.42 31.7212 60.4486C31.9395 60.4773 32.1509 60.3597 32.2417 60.159L31.7862 59.9529ZM34.5154 50.9173L35.0089 50.9974L35.0089 50.9974L34.5154 50.9173ZM36.0672 45.0144L36.497 45.27L36.4973 45.2693L36.0672 45.0144ZM39.167 43.5792L38.9241 44.0163L38.925 44.0168L39.167 43.5792ZM40.0276 47.1752L40.5253 47.2233V47.2233L40.0276 47.1752ZM40.0239 47.2135L40.5216 47.2621L40.5216 47.2616L40.0239 47.2135ZM40.2556 53.2823L40.7546 53.251L40.7546 53.2508L40.2556 53.2823ZM34.8435 74.4476L34.4208 74.1806L34.4207 74.1807L34.8435 74.4476ZM31.3695 83.6105L31.8674 83.6559L31.8675 83.6555L31.3695 83.6105ZM31.7632 88.0396L31.2711 88.1279L31.2711 88.1281L31.7632 88.0396ZM32.5731 92.4567L32.0813 92.547L32.5731 92.4567ZM31.2772 94.6537L31.1285 94.1764L31.2772 94.6537ZM14.1481 95.3354L14.3011 94.8594H14.3011L14.1481 95.3354ZM12.9438 93.7097L13.4438 93.7042L12.9438 93.7097ZM13.5852 82.9894L14.0811 82.926L14.0811 82.9259L13.5852 82.9894ZM11.076 75.6861L10.619 75.8889L10.6191 75.8892L11.076 75.6861ZM5 39.5L5.38806 39.1847L5 39.5ZM10.7096 56L10.2239 56.1186C10.287 56.3771 10.5415 56.5408 10.8028 56.4912C11.0642 56.4416 11.241 56.196 11.2051 55.9324L10.7096 56ZM20.1918 37L19.7017 37.0991L20.1918 37ZM27.4192 37L26.9286 37.0965L27.4192 37ZM29.3876 47L28.8969 47.0957L29.3876 47ZM35.2371 47L35.7179 47.1372L35.2371 47ZM40.0445 47L39.5467 46.9528L40.0445 47ZM30.0724 50.5394L29.5813 50.6335L30.0724 50.5394ZM31.5 85.5C31.2239 85.5 31 85.7239 31 86C31 86.2761 31.2239 86.5 31.5 86.5V85.5ZM13.6527 86L14.1517 86.0309L13.6527 86ZM81.3552 8.55735L80.8552 8.55619L81.3552 8.55735ZM82.4994 36.2322L82.0017 36.2803C82.0278 36.5506 82.265 36.7507 82.5359 36.7309C82.8068 36.7111 83.0123 36.4786 82.9988 36.2074L82.4994 36.2322ZM80.2679 12.1621L79.7689 12.194L79.769 12.1944L80.2679 12.1621ZM76.7783 1.76599L76.6686 1.27818L76.7783 1.76599ZM74.8447 12.2441L74.3448 12.2546L74.3448 12.255L74.8447 12.2441ZM75.8525 36.0516L75.3584 36.1277C75.3989 36.3909 75.6386 36.5762 75.9035 36.549C76.1684 36.5219 76.3656 36.2919 76.3519 36.0259L75.8525 36.0516ZM71.3966 9.46793L70.9088 9.57768L71.3966 9.46793ZM67.5271 10.3385L67.0295 10.3877L67.5271 10.3385ZM69.3388 45.8441L68.9295 46.1312C69.0586 46.3152 69.2947 46.3905 69.5064 46.3151C69.7182 46.2398 69.8537 46.0324 69.8375 45.8082L69.3388 45.8441ZM64.5369 36.829L64.0704 37.0088L64.0704 37.0088L64.5369 36.829ZM61.6235 30.8892L61.2461 31.2173L61.2466 31.2178L61.6235 30.8892ZM58.2814 30.0375L58.6286 30.3974L58.6294 30.3966L58.2814 30.0375ZM58.3091 34.049L58.7855 33.897L58.3091 34.049ZM58.3219 34.089L57.8456 34.241L57.8457 34.2414L58.3219 34.089ZM59.5498 40.5933L59.0565 40.675L59.0565 40.6751L59.5498 40.5933ZM69.8491 61.9241L70.2175 61.5861L70.2174 61.5859L69.8491 61.9241ZM75.402 70.9125L74.9248 71.0618L74.925 71.0622L75.402 70.9125ZM76.0808 75.7084L76.5799 75.6788L76.5799 75.6787L76.0808 75.7084ZM76.3668 80.8077L75.8676 80.8358L76.3668 80.8077ZM78.0512 82.6274L78.1066 82.1305L78.0512 82.6274ZM94.8998 79.6129L95.1668 80.0357V80.0356L94.8998 79.6129ZM95.6725 77.7831L95.1829 77.8844L95.6725 77.7831ZM92.4577 66.3815L91.9604 66.4341L91.9605 66.4342L92.4577 66.3815ZM93.1377 58.0686L93.631 58.1497L93.6311 58.1494L93.1377 58.0686ZM94.0842 18.9389L93.5846 18.9595L94.0842 18.9389ZM90.5 17L90.0425 16.7983L90.5 17ZM88.7822 37.0533L88.2846 37.1022C88.3106 37.367 88.5394 37.565 88.8051 37.5528C89.0709 37.5406 89.2805 37.3225 89.2822 37.0564L88.7822 37.0533ZM85.3444 8.21855L84.8565 8.3283V8.3283L85.3444 8.21855ZM87 20.2652L86.5033 20.3223L87 20.2652ZM74.9216 15L75.4213 14.9838L74.9216 15ZM54 39.5C54.8284 39.5 55.5 40.1716 55.5 41H56.5C56.5 39.6193 55.3807 38.5 54 38.5V39.5ZM55.5 41V74H56.5V41H55.5ZM55.5 74V84H56.5V74H55.5ZM55.5 84C55.5 84.8284 54.8284 85.5 54 85.5V86.5C55.3807 86.5 56.5 85.3807 56.5 84H55.5ZM9 85.5C8.17157 85.5 7.5 84.8284 7.5 84H6.5C6.5 85.3807 7.61929 86.5 9 86.5V85.5ZM1.5 3C1.5 2.17157 2.17157 1.5 3 1.5V0.5C1.61929 0.5 0.5 1.61929 0.5 3H1.5ZM3 1.5H46V0.5H3V1.5ZM46 1.5C46.8284 1.5 47.5 2.17157 47.5 3H48.5C48.5 1.61929 47.3807 0.5 46 0.5V1.5ZM47.5 45C47.5 45.8284 46.8284 46.5 46 46.5V47.5C47.3807 47.5 48.5 46.3807 48.5 45H47.5ZM3 46.5C2.17157 46.5 1.5 45.8284 1.5 45H0.5C0.5 46.3807 1.61929 47.5 3 47.5V46.5ZM1.5 45V3H0.5V45H1.5ZM63.5 3C63.5 2.17157 64.1716 1.5 65 1.5V0.5C63.6193 0.5 62.5 1.61929 62.5 3H63.5ZM65 1.5H95V0.5H65V1.5ZM95 1.5C95.8284 1.5 96.5 2.17157 96.5 3H97.5C97.5 1.61929 96.3807 0.5 95 0.5V1.5ZM96.5 3V45H97.5V3H96.5ZM96.5 45C96.5 45.8284 95.8284 46.5 95 46.5V47.5C96.3807 47.5 97.5 46.3807 97.5 45H96.5ZM47.5 3V15H48.5V3H47.5ZM47.5 15V39H48.5V15H47.5ZM47.5 39V45H48.5V39H47.5ZM48 39.5H54V38.5H48V39.5ZM7.5 84V64H6.5V84H7.5ZM48 15.5H63V14.5H48V15.5ZM63.5 15V3H62.5V15H63.5ZM95 46.5H94.1024V47.5H95V46.5ZM42.9033 66.0462C42.9392 65.7022 42.9576 65.3532 42.9576 65H41.9576C41.9576 65.3184 41.941 65.6328 41.9087 65.9423L42.9033 66.0462ZM43.2054 67.9194L46.2578 68.7371L46.5166 67.7712L43.4641 66.9535L43.2054 67.9194ZM47.5 65C47.5 65.7798 47.4385 66.545 47.3202 67.2908L48.3079 67.4475C48.4344 66.65 48.5 65.8325 48.5 65H47.5ZM40.4384 52.5506C44.6694 55.0842 47.5 59.7118 47.5 65H48.5C48.5 59.3459 45.4723 54.3994 40.9521 51.6927L40.4384 52.5506ZM30.81 50.6642C31.1282 50.616 31.8289 50.6135 32.5965 50.6278C33.3303 50.6414 34.1109 50.6698 34.4999 50.6698V49.6698C34.1189 49.6698 33.3864 49.6423 32.6151 49.628C31.8774 49.6143 31.0807 49.6118 30.6603 49.6755L30.81 50.6642ZM33 55.0424C32.6997 55.0424 32.4025 55.0557 32.1088 55.0817L32.1972 56.0778C32.4615 56.0544 32.7293 56.0424 33 56.0424V55.0424ZM46.0672 71.2926C43.7236 76.1502 38.7525 79.5 33 79.5V80.5C39.1507 80.5 44.4638 76.9173 46.9678 71.7272L46.0672 71.2926ZM45.8891 69.4665L42.7614 68.6287L42.5027 69.5947L45.6304 70.4325L45.8891 69.4665ZM42.7614 68.6287C41.9435 68.4097 41.1379 68.8299 40.7436 69.5059L41.6074 70.0097C41.8076 69.6665 42.1807 69.5085 42.5027 69.5947L42.7614 68.6287ZM46.9678 71.7272C47.426 70.7776 46.8466 69.723 45.8891 69.4665L45.6304 70.4325C46.0438 70.5432 46.2258 70.964 46.0672 71.2926L46.9678 71.7272ZM46.2578 68.7371C47.1671 68.9807 48.1516 68.4329 48.3079 67.4475L47.3202 67.2908C47.2656 67.6351 46.9077 67.8759 46.5166 67.7712L46.2578 68.7371ZM41.9087 65.9423C41.82 66.7918 42.3083 67.6792 43.2054 67.9194L43.4641 66.9535C43.1123 66.8593 42.8577 66.4827 42.9033 66.0462L41.9087 65.9423ZM40.9521 51.6927C40.7823 51.591 40.6012 51.5244 40.4169 51.4916L40.2415 52.4761C40.3068 52.4877 40.3731 52.5115 40.4384 52.5506L40.9521 51.6927ZM42.9576 65C42.9576 62.6131 42.1172 60.4211 40.7165 58.7058L39.9419 59.3383C41.2021 60.8816 41.9576 62.8519 41.9576 65H42.9576ZM33 79.5C32.725 79.5 32.4519 79.4923 32.1808 79.4773L32.1252 80.4757C32.4148 80.4918 32.7065 80.5 33 80.5V79.5ZM11.2244 29.1213C11.7204 31.1053 12.9674 37.3384 14.0939 43.096C14.6563 45.9703 15.1874 48.7198 15.578 50.7507C15.7733 51.7661 15.9334 52.6019 16.0447 53.1838C16.1004 53.4747 16.1438 53.7022 16.1733 53.8569C16.1881 53.9343 16.1994 53.9935 16.207 54.0333C16.2108 54.0532 16.2136 54.0683 16.2156 54.0784C16.2165 54.0834 16.2173 54.0872 16.2177 54.0898C16.218 54.091 16.2182 54.092 16.2183 54.0926C16.2183 54.0929 16.2184 54.0932 16.2184 54.0933C16.2185 54.0935 16.2185 54.0936 16.7096 54C17.2008 53.9064 17.2008 53.9064 17.2008 53.9062C17.2007 53.906 17.2007 53.9058 17.2006 53.9055C17.2005 53.9048 17.2003 53.9039 17.2001 53.9026C17.1996 53.9 17.1989 53.8962 17.1979 53.8912C17.196 53.881 17.1931 53.8659 17.1893 53.846C17.1817 53.8061 17.1704 53.7469 17.1556 53.6694C17.1261 53.5146 17.0826 53.287 17.0269 52.9959C16.9155 52.4137 16.7553 51.5776 16.56 50.5618C16.1693 48.5302 15.6379 45.7797 15.0753 42.904C13.9517 37.1616 12.6986 30.8947 12.1946 28.8787L11.2244 29.1213ZM16.7096 54C17.2049 53.9316 17.2049 53.9315 17.2049 53.9314C17.2049 53.9312 17.2049 53.931 17.2048 53.9307C17.2047 53.9301 17.2046 53.9292 17.2045 53.9281C17.2041 53.9257 17.2036 53.9222 17.203 53.9176C17.2017 53.9083 17.1998 53.8944 17.1973 53.8761C17.1922 53.8395 17.1847 53.7851 17.1749 53.7141C17.1552 53.5721 17.1264 53.3634 17.0895 53.0969C17.0157 52.5638 16.9097 51.7993 16.7811 50.8736C16.5239 49.022 16.1761 46.5251 15.8137 43.944C15.0899 38.7885 14.3052 33.2787 14.0699 31.9219L13.0846 32.0928C13.3163 33.429 14.0979 38.9155 14.8235 44.083C15.1858 46.6635 15.5335 49.1599 15.7906 51.0111C15.9192 51.9368 16.0251 52.7011 16.0989 53.234C16.1358 53.5005 16.1647 53.7091 16.1843 53.8511C16.1941 53.9221 16.2016 53.9764 16.2067 54.013C16.2092 54.0313 16.2111 54.0451 16.2124 54.0544C16.213 54.0591 16.2135 54.0626 16.2139 54.0649C16.214 54.0661 16.2141 54.0669 16.2142 54.0675C16.2143 54.0678 16.2143 54.068 16.2143 54.0682C16.2143 54.0683 16.2143 54.0684 16.7096 54ZM14.0698 31.9214C13.8787 30.826 13.4201 28.3653 13.3764 26.1806C13.3544 25.0814 13.4397 24.1084 13.6843 23.4279C13.8052 23.0914 13.9537 22.8594 14.1164 22.7146C14.2688 22.579 14.4547 22.5 14.7095 22.5V21.5C14.2143 21.5 13.7906 21.666 13.4516 21.9675C13.1231 22.2599 12.8986 22.6573 12.7432 23.0896C12.4352 23.9467 12.354 25.069 12.3766 26.2006C12.4222 28.4776 12.8975 31.0205 13.0847 32.0933L14.0698 31.9214ZM14.7095 22.5C15.2451 22.5 15.7202 22.7901 16.1623 23.3808C16.6087 23.9771 16.9741 24.8224 17.2759 25.7821C17.8854 27.7203 18.1715 29.8798 18.4434 31.0978L19.4194 30.8799C19.1779 29.7984 18.853 27.4635 18.2299 25.4821C17.9154 24.4821 17.5092 23.5113 16.9629 22.7815C16.4124 22.0461 15.6739 21.5 14.7095 21.5V22.5ZM22.2095 27.8098C22.2095 26.6548 22.4218 25.9343 22.6827 25.5354C22.9261 25.1631 23.1973 25.0793 23.4482 25.1168C23.7402 25.1604 24.1187 25.3879 24.469 25.8704C24.8129 26.344 25.0987 27.0256 25.214 27.8769L26.205 27.7427C26.0703 26.7489 25.7311 25.9066 25.2782 25.2828C24.8316 24.6678 24.2413 24.2241 23.5958 24.1278C22.9093 24.0253 22.2742 24.3328 21.8457 24.9881C21.4347 25.6167 21.2095 26.5599 21.2095 27.8098H22.2095ZM32.2417 60.159C33.5606 57.2449 34.4961 54.1547 35.0089 50.9974L34.0218 50.8371C33.5233 53.9068 32.6135 56.9123 31.3307 59.7467L32.2417 60.159ZM36.4973 45.2693C36.78 44.7923 37.2162 44.3497 37.6818 44.0991C38.1438 43.8504 38.569 43.819 38.9241 44.0163L39.4098 43.1422C38.6609 42.726 37.8585 42.8683 37.2078 43.2185C36.5607 43.5669 35.9991 44.1485 35.637 44.7595L36.4973 45.2693ZM39.53 47.1271L39.5263 47.1654L40.5216 47.2616L40.5253 47.2233L39.53 47.1271ZM39.5263 47.165C39.3242 49.236 39.6328 51.3492 39.7565 53.3137L40.7546 53.2508C40.6236 51.1721 40.3299 49.2266 40.5216 47.2621L39.5263 47.165ZM34.4207 74.1807C32.5669 77.1177 31.1904 80.0316 30.8715 83.5656L31.8675 83.6555C32.1662 80.3452 33.4528 77.5878 35.2663 74.7145L34.4207 74.1807ZM30.8715 83.5651C30.7293 85.1253 31.0107 86.6777 31.2711 88.1279L32.2554 87.9512C31.9907 86.477 31.7395 85.0588 31.8674 83.6559L30.8715 83.5651ZM31.2711 88.1281C31.5413 89.63 31.8117 91.0782 32.0813 92.547L33.0649 92.3664C32.7945 90.8936 32.5251 89.4508 32.2553 87.9511L31.2711 88.1281ZM32.0813 92.547C32.214 93.2698 31.8045 93.9658 31.1285 94.1764L31.4259 95.1311C32.6102 94.7622 33.284 93.5602 33.0649 92.3664L32.0813 92.547ZM31.1285 94.1764C25.7957 95.8375 19.4252 96.506 14.3011 94.8594L13.9951 95.8115C19.3905 97.5451 25.9885 96.8249 31.4259 95.1311L31.1285 94.1764ZM14.3011 94.8594C13.793 94.6962 13.4496 94.2328 13.4438 93.7042L12.4439 93.7151C12.4544 94.6791 13.0821 95.5181 13.9952 95.8115L14.3011 94.8594ZM14.0811 82.9259C13.7416 80.2713 12.5718 77.8192 11.5329 75.4829L10.6191 75.8892C11.6802 78.2752 12.7725 80.5762 13.0892 83.0528L14.0811 82.9259ZM11.533 75.4832C9.41465 70.71 7.25517 62.943 5.55847 56.0259C3.86466 49.1206 2.64218 43.1055 2.39288 41.859L1.4123 42.0551C1.663 43.3086 2.88865 49.3393 4.58726 56.2641C6.28298 63.1772 8.4602 71.0246 10.619 75.8889L11.533 75.4832ZM2.39288 41.859C2.27843 41.2867 2.26171 40.6919 2.33314 40.1705C2.40587 39.6395 2.56303 39.2325 2.75345 38.9943C2.9226 38.7826 3.09497 38.7194 3.31809 38.7717C3.59904 38.8375 4.03618 39.1066 4.61194 39.8153L5.38806 39.1847C4.76256 38.4148 4.14939 37.9394 3.54621 37.798C2.88521 37.6432 2.33964 37.9103 1.97225 38.37C1.62613 38.8031 1.42816 39.4086 1.34239 40.0348C1.25533 40.6704 1.27675 41.3774 1.4123 42.0551L2.39288 41.859ZM4.61194 39.8153C5.15645 40.4855 5.78975 41.8161 6.43899 43.505C7.08047 45.1738 7.715 47.1305 8.27687 49.0026C8.83834 50.8734 9.32528 52.653 9.67194 53.9654C9.84523 54.6214 9.98336 55.1603 10.0781 55.5349C10.1255 55.7222 10.162 55.8684 10.1866 55.9677C10.199 56.0173 10.2083 56.0552 10.2146 56.0806C10.2177 56.0933 10.2201 56.1029 10.2216 56.1092C10.2224 56.1124 10.223 56.1148 10.2234 56.1164C10.2236 56.1171 10.2237 56.1177 10.2238 56.1181C10.2238 56.1183 10.2239 56.1184 10.2239 56.1185C10.2239 56.1186 10.2239 56.1186 10.7096 56C11.1954 55.8814 11.1953 55.8813 11.1953 55.8812C11.1953 55.8811 11.1952 55.8809 11.1952 55.8807C11.1951 55.8802 11.1949 55.8796 11.1947 55.8787C11.1943 55.877 11.1937 55.8744 11.1928 55.8711C11.1912 55.8644 11.1888 55.8545 11.1856 55.8415C11.1792 55.8155 11.1697 55.777 11.1572 55.7267C11.1322 55.6261 11.0953 55.4785 11.0476 55.2897C10.9521 54.9121 10.8131 54.3699 10.6388 53.71C10.2903 52.3907 9.80028 50.5998 9.23466 48.7152C8.66944 46.8319 8.02671 44.8484 7.3724 43.1462C6.72584 41.4642 6.04481 39.993 5.38806 39.1847L4.61194 39.8153ZM8.20951 29.5C8.20951 28.4225 8.39029 27.6665 8.63739 27.1918C8.88298 26.72 9.16033 26.5762 9.37013 26.5612C9.59352 26.5453 9.92121 26.6611 10.283 27.0832C10.6406 27.5004 10.9874 28.173 11.2244 29.1213L12.1946 28.8787C11.9317 27.827 11.5284 26.9996 11.0423 26.4324C10.5603 25.8701 9.95049 25.5172 9.29888 25.5638C8.63368 25.6113 8.09853 26.0612 7.75037 26.7301C7.40372 27.396 7.20951 28.3275 7.20951 29.5H8.20951ZM10.7096 56C11.2051 55.9324 11.205 55.9324 11.205 55.9323C11.205 55.9322 11.205 55.9321 11.205 55.932C11.2049 55.9316 11.2049 55.9311 11.2048 55.9305C11.2046 55.9292 11.2043 55.9272 11.204 55.9245C11.2033 55.9193 11.2022 55.9114 11.2008 55.9009C11.1979 55.8799 11.1937 55.8487 11.1881 55.8076C11.1769 55.7254 11.1604 55.6038 11.1392 55.4461C11.0966 55.1307 11.0347 54.6712 10.9578 54.0946C10.8039 52.9413 10.5895 51.32 10.3477 49.4478C9.86401 45.7027 9.27076 40.9565 8.83167 36.9456L7.83761 37.0544C8.27776 41.0751 8.872 45.8289 9.35597 49.5759C9.598 51.4497 9.81254 53.0725 9.96658 54.2268C10.0436 54.804 10.1055 55.2641 10.1481 55.5799C10.1695 55.7378 10.186 55.8597 10.1972 55.9421C10.2028 55.9833 10.207 56.0146 10.2099 56.0357C10.2113 56.0462 10.2124 56.0542 10.2131 56.0595C10.2135 56.0622 10.2138 56.0642 10.2139 56.0655C10.214 56.0662 10.2141 56.0667 10.2142 56.067C10.2142 56.0672 10.2142 56.0673 10.2142 56.0674C10.2142 56.0675 10.2142 56.0676 10.7096 56ZM8.83167 36.9456C8.4648 33.5943 8.20951 30.7896 8.20951 29.5H7.20951C7.20951 30.8555 7.47253 33.7195 7.83761 37.0544L8.83167 36.9456ZM1.5 37.5H8.33464V36.5H1.5V37.5ZM18.4433 31.0973C18.803 32.716 19.2426 34.8289 19.7017 37.0991L20.6818 36.9009C20.2223 34.6287 19.7813 32.5085 19.4195 30.8804L18.4433 31.0973ZM19.7017 37.0991C20.4103 40.6032 21.1645 44.4765 21.7415 47.4743C22.0301 48.973 22.2743 50.2527 22.4463 51.1577C22.5324 51.6102 22.6004 51.9689 22.6469 52.2146C22.6701 52.3374 22.688 52.4319 22.7 52.4958C22.706 52.5277 22.7106 52.5519 22.7137 52.5681C22.7152 52.5763 22.7164 52.5824 22.7171 52.5865C22.7175 52.5885 22.7178 52.5901 22.718 52.5911C22.7181 52.5916 22.7182 52.592 22.7182 52.5922C22.7182 52.5924 22.7183 52.5925 22.7183 52.5925C22.7183 52.5926 22.7183 52.5926 23.2096 52.5C23.701 52.4074 23.701 52.4074 23.701 52.4073C23.701 52.4072 23.7009 52.4071 23.7009 52.407C23.7009 52.4067 23.7008 52.4063 23.7007 52.4058C23.7005 52.4048 23.7002 52.4032 23.6998 52.4012C23.699 52.3971 23.6979 52.3909 23.6963 52.3827C23.6933 52.3664 23.6887 52.3422 23.6826 52.3102C23.6706 52.2463 23.6527 52.1516 23.6294 52.0286C23.5829 51.7827 23.5148 51.4237 23.4287 50.9709C23.2565 50.0653 23.0122 48.7849 22.7235 47.2852C22.1462 44.2862 21.3914 40.4094 20.6818 36.9009L19.7017 37.0991ZM20.1918 37.5H22.1383V36.5H20.1918V37.5ZM23.2096 52.5C23.7082 52.4624 23.7082 52.4623 23.7082 52.4623C23.7082 52.4622 23.7082 52.4621 23.7082 52.462C23.7082 52.4618 23.7081 52.4614 23.7081 52.4609C23.708 52.4599 23.7079 52.4584 23.7078 52.4564C23.7075 52.4524 23.707 52.4463 23.7064 52.4384C23.7052 52.4224 23.7034 52.3987 23.7011 52.3674C23.6964 52.3047 23.6894 52.2119 23.6804 52.0912C23.6624 51.8497 23.6361 51.4968 23.6032 51.0508C23.5375 50.1588 23.4451 48.8946 23.339 47.4062C23.1266 44.4291 22.8589 40.5559 22.6374 36.9692L21.6393 37.0308C21.8611 40.6221 22.1291 44.4989 22.3415 47.4773C22.4477 48.9667 22.5401 50.2316 22.6059 51.1243C22.6389 51.5706 22.6651 51.9239 22.6832 52.1656C22.6922 52.2865 22.6992 52.3795 22.7039 52.4422C22.7062 52.4736 22.708 52.4974 22.7092 52.5134C22.7098 52.5214 22.7103 52.5275 22.7106 52.5315C22.7107 52.5335 22.7109 52.5351 22.7109 52.5361C22.711 52.5366 22.711 52.537 22.711 52.5372C22.711 52.5374 22.711 52.5375 22.711 52.5375C22.7111 52.5376 22.7111 52.5376 23.2096 52.5ZM22.6374 36.9692C22.3952 33.0482 22.2095 29.4891 22.2095 27.8098H21.2095C21.2095 29.5263 21.3977 33.1189 21.6393 37.0308L22.6374 36.9692ZM27.4192 37.5H47.5V36.5H27.4192V37.5ZM25.214 27.8769C25.4033 29.2735 26.0789 32.7775 26.9286 37.0965L27.9098 36.9035C27.0565 32.5663 26.3891 29.1015 26.205 27.7427L25.214 27.8769ZM26.9286 37.0965C27.531 40.1583 28.2227 43.6386 28.8969 47.0957L29.8784 46.9043C29.204 43.4464 28.5116 39.9624 27.9098 36.9035L26.9286 37.0965ZM35.2371 46.5H29.3876V47.5H35.2371V46.5ZM35.0089 50.9974C35.2264 49.6573 35.3679 48.3641 35.7179 47.1372L34.7563 46.8628C34.3849 48.1648 34.2281 49.5663 34.0218 50.8372L35.0089 50.9974ZM35.7179 47.1372C35.9073 46.4733 36.1539 45.8469 36.497 45.27L35.6374 44.7589C35.2393 45.4284 34.9627 46.1394 34.7563 46.8628L35.7179 47.1372ZM46 46.5H40.0445V47.5H46V46.5ZM38.925 44.0168C39.2857 44.2162 39.4838 44.5762 39.5686 45.1143C39.6549 45.6626 39.6081 46.306 39.5467 46.9528L40.5422 47.0472C40.6024 46.4127 40.6651 45.649 40.5564 44.9587C40.4461 44.2584 40.1447 43.5486 39.4089 43.1417L38.925 44.0168ZM39.5467 46.9528C39.5412 47.0112 39.5356 47.0692 39.53 47.1271L40.5253 47.2233C40.5309 47.1655 40.5366 47.1067 40.5422 47.0472L39.5467 46.9528ZM28.8969 47.0957C29.1286 48.2841 29.3582 49.4693 29.5813 50.6335L30.5634 50.4453C30.3401 49.2798 30.1103 48.0934 29.8784 46.9043L28.8969 47.0957ZM30.6603 49.6755C30.2623 49.7357 29.9273 49.9366 29.6906 50.2165L30.4542 50.8622C30.5413 50.7591 30.6616 50.6867 30.81 50.6642L30.6603 49.6755ZM29.5813 50.6335C29.8783 52.1833 30.1638 53.6955 30.4274 55.1272L31.4109 54.9462C31.1467 53.5114 30.8608 51.9968 30.5634 50.4453L29.5813 50.6335ZM30.4274 55.1272C30.757 56.9174 31.0521 58.5809 31.2929 60.0346L32.2795 59.8712C32.0374 58.4095 31.741 56.7397 31.4109 54.9462L30.4274 55.1272ZM30.5119 55.3268C30.8927 55.8613 31.548 56.1354 32.1972 56.0778L32.1088 55.0817C31.7846 55.1105 31.4852 54.9696 31.3264 54.7466L30.5119 55.3268ZM39.7565 53.3136C40.2085 60.5214 38.3564 67.8584 34.541 73.9889L35.3899 74.5173C39.3153 68.2103 41.2195 60.6667 40.7546 53.251L39.7565 53.3136ZM34.541 73.9889C34.5011 74.0529 34.461 74.1168 34.4208 74.1806L35.2662 74.7146C35.3077 74.649 35.3489 74.5832 35.3899 74.5173L34.541 73.9889ZM34.8578 74.7845C34.9284 74.7712 34.9988 74.7571 35.0688 74.7423L34.8621 73.7639C34.799 73.7772 34.7358 73.7899 34.6723 73.8019L34.8578 74.7845ZM35.0688 74.7423C37.8583 74.1527 40.2153 72.3965 41.6074 70.0097L40.7436 69.5059C39.4903 71.6548 37.3687 73.2341 34.8621 73.7639L35.0688 74.7423ZM54 85.5H31.5V86.5H54V85.5ZM13.6527 85.5H9V86.5H13.6527V85.5ZM13.4438 93.7042C13.4302 92.4566 13.5638 91.1992 13.7243 89.9161C13.8835 88.6429 14.0709 87.3342 14.1517 86.0309L13.1536 85.9691C13.0754 87.2316 12.8944 88.4938 12.732 89.792C12.5708 91.0804 12.4295 92.395 12.4439 93.7151L13.4438 93.7042ZM14.1517 86.0309C14.2153 85.005 14.2142 83.9678 14.0811 82.926L13.0892 83.0527C13.2119 84.0134 13.2147 84.984 13.1536 85.9691L14.1517 86.0309ZM80.7669 12.1301C80.6911 10.9464 80.5428 8.14606 80.0438 5.72278C79.7957 4.51769 79.4513 3.35457 78.956 2.52319C78.7072 2.10559 78.401 1.73837 78.0179 1.50184C77.6201 1.25627 77.1627 1.16702 76.6686 1.27818L76.888 2.25379C77.1195 2.20173 77.3105 2.24031 77.4925 2.35273C77.6893 2.4742 77.8944 2.69515 78.0969 3.035C78.5041 3.71852 78.822 4.74744 79.0644 5.92447C79.5464 8.26541 79.6919 10.9896 79.7689 12.194L80.7669 12.1301ZM76.6686 1.27818C75.7129 1.49318 75.1301 2.24802 74.7793 3.13522C74.4286 4.02236 74.2687 5.13477 74.204 6.26234C74.0755 8.50149 74.3194 11.0402 74.3448 12.2546L75.3446 12.2337C75.3165 10.891 75.0762 8.51707 75.2023 6.31964C75.2649 5.22893 75.4171 4.24205 75.7093 3.50288C76.0015 2.76376 76.3927 2.36524 76.888 2.25379L76.6686 1.27818ZM71.8844 9.35819C71.5877 8.03904 71.1498 7.1018 70.6135 6.53518C70.057 5.94715 69.3614 5.73912 68.6933 6.009C68.0769 6.25804 67.6142 6.86533 67.334 7.60435C67.0483 8.35763 66.9234 9.31501 67.0295 10.3877L68.0247 10.2892C67.9312 9.3453 68.0463 8.54617 68.269 7.95889C68.4971 7.35734 68.811 7.04 69.0679 6.93619C69.2733 6.85321 69.548 6.86408 69.8873 7.22256C70.2468 7.60245 70.6302 8.3393 70.9088 9.57768L71.8844 9.35819ZM69.7481 45.5569C67.8255 42.8168 66.223 39.8123 65.0034 36.6491L64.0704 37.0088C65.319 40.2476 66.9599 43.3242 68.9295 46.1312L69.7481 45.5569ZM65.0034 36.6491C64.2236 34.6257 63.5077 32.2893 62.0003 30.5606L61.2466 31.2178C62.605 32.7757 63.248 34.8752 64.0704 37.0088L65.0034 36.6491ZM62.0008 30.5612C61.511 29.9978 60.8325 29.5021 60.1204 29.2717C59.402 29.0391 58.5711 29.0606 57.9335 29.6784L58.6294 30.3966C58.913 30.1218 59.3112 30.0608 59.8125 30.2231C60.3201 30.3874 60.852 30.7639 61.2461 31.2173L62.0008 30.5612ZM57.9342 29.6777C57.2926 30.2968 57.1966 31.1493 57.2748 31.9264C57.353 32.7045 57.618 33.528 57.8328 34.2011L58.7855 33.897C58.5633 33.2009 58.3356 32.4808 58.2697 31.8264C58.2038 31.171 58.3125 30.7023 58.6286 30.3974L57.9342 29.6777ZM57.8328 34.2011L57.8456 34.241L58.7982 33.937L58.7855 33.897L57.8328 34.2011ZM57.8457 34.2414C58.5041 36.2981 58.6876 38.4459 59.0565 40.675L60.0431 40.5117C59.6911 38.3854 59.4861 36.0859 58.7981 33.9366L57.8457 34.2414ZM59.0565 40.6751C60.3915 48.7262 64.0923 56.3942 69.4808 62.2623L70.2174 61.5859C64.9637 55.8647 61.3471 48.3762 60.0431 40.5115L59.0565 40.6751ZM69.4807 62.2622C71.9243 64.9251 73.838 67.5877 74.9248 71.0618L75.8792 70.7632C74.7311 67.0931 72.7116 64.304 70.2175 61.5861L69.4807 62.2622ZM75.5817 75.7379C75.6841 77.4685 75.7719 79.1325 75.8676 80.8358L76.866 80.7797C76.7706 79.0812 76.6824 77.4111 76.5799 75.6788L75.5817 75.7379ZM75.8676 80.8358C75.9331 82.0029 76.8068 82.9918 77.9958 83.1244L78.1066 82.1305C77.4296 82.0551 76.9057 81.4871 76.866 80.7797L75.8676 80.8358ZM77.9958 83.1244C83.698 83.76 90.324 83.0939 95.1668 80.0357L94.6328 79.1901C90.0567 82.08 83.6906 82.7529 78.1066 82.1305L77.9958 83.1244ZM95.1668 80.0356C95.9606 79.5343 96.3513 78.5963 96.1622 77.6819L95.1829 77.8844C95.2887 78.3958 95.0701 78.914 94.6328 79.1901L95.1668 80.0356ZM96.1622 77.6819C95.7544 75.7102 95.0397 73.802 94.394 71.943C93.7427 70.068 93.1565 68.2306 92.9549 66.3288L91.9605 66.4342C92.1752 68.4605 92.797 70.3929 93.4494 72.2711C94.1073 74.1653 94.7919 75.9938 95.1829 77.8844L96.1622 77.6819ZM92.9549 66.3288C92.6672 63.611 93.1762 60.9132 93.631 58.1497L92.6443 57.9874C92.1974 60.7029 91.6554 63.5522 91.9604 66.4341L92.9549 66.3288ZM93.6311 58.1494C94.5544 52.5146 94.8189 43.3861 94.8408 35.3504C94.8628 27.3033 94.6413 20.3085 94.5838 18.9182L93.5846 18.9595C93.6416 20.3367 93.8627 27.3168 93.8408 35.3477C93.8188 43.39 93.5528 52.4426 92.6442 57.9877L93.6311 58.1494ZM94.5838 18.9182C94.5532 18.1773 94.4066 17.4308 94.1738 16.7834C93.9445 16.146 93.6146 15.5578 93.1855 15.1807C92.9668 14.9885 92.7062 14.8374 92.4074 14.7808C92.1015 14.7228 91.7916 14.7711 91.498 14.9215C90.9382 15.2083 90.4598 15.8516 90.0425 16.7983L90.9575 17.2017C91.3485 16.3146 91.7081 15.9375 91.9539 15.8115C92.0632 15.7556 92.1481 15.7494 92.2213 15.7633C92.3015 15.7785 92.4043 15.8254 92.5254 15.9319C92.7759 16.152 93.0319 16.5632 93.2328 17.1219C93.4301 17.6706 93.5581 18.3167 93.5846 18.9595L94.5838 18.9182ZM90.0425 16.7983C89.6034 17.7944 89.2887 19.5797 89.0528 21.6233C88.8142 23.6906 88.6494 26.0948 88.5355 28.3771C88.4215 30.6606 88.3582 32.8284 88.3234 34.4249C88.306 35.2233 88.2957 35.8791 88.2897 36.3356C88.2868 36.5639 88.2849 36.7423 88.2837 36.8637C88.2832 36.9245 88.2828 36.971 88.2825 37.0024C88.2824 37.0181 88.2823 37.03 88.2823 37.038C88.2823 37.042 88.2822 37.045 88.2822 37.0471C88.2822 37.0481 88.2822 37.0489 88.2822 37.0494C88.2822 37.0497 88.2822 37.0499 88.2822 37.05C88.2822 37.0502 88.2822 37.0503 88.7822 37.0533C89.2822 37.0564 89.2822 37.0564 89.2822 37.0563C89.2822 37.0562 89.2822 37.056 89.2822 37.0558C89.2822 37.0553 89.2822 37.0546 89.2822 37.0536C89.2822 37.0517 89.2822 37.0488 89.2823 37.0449C89.2823 37.0372 89.2824 37.0255 89.2825 37.0101C89.2828 36.9793 89.2831 36.9333 89.2837 36.8731C89.2848 36.7528 89.2867 36.5756 89.2897 36.3486C89.2956 35.8947 89.3058 35.2417 89.3231 34.4467C89.3578 32.8562 89.4208 30.6983 89.5342 28.4269C89.6477 26.1543 89.8112 23.7744 90.0463 21.7379C90.284 19.6777 90.5883 18.0394 90.9575 17.2017L90.0425 16.7983ZM85.8322 8.10881C85.5537 6.87111 85.1476 5.93667 84.6622 5.31581C84.1801 4.69911 83.5568 4.32406 82.8787 4.42164C82.2127 4.51748 81.7053 5.0409 81.3793 5.73163C81.0482 6.43312 80.8579 7.39063 80.8552 8.55619L81.8552 8.55851C81.8577 7.48832 82.034 6.68741 82.2837 6.15843C82.5384 5.61867 82.8257 5.43957 83.0212 5.41144C83.2045 5.38506 83.5092 5.46461 83.8744 5.93171C84.2363 6.39465 84.5967 7.17319 84.8565 8.3283L85.8322 8.10881ZM74.925 71.0622C75.2239 72.0148 75.3714 73.0145 75.4639 74.0447L76.4599 73.9553C76.3645 72.8928 76.2086 71.813 75.8791 70.7628L74.925 71.0622ZM75.4639 74.0447C75.5142 74.6052 75.5478 75.1688 75.5817 75.738L76.5799 75.6787C76.5462 75.1119 76.5118 74.5332 76.4599 73.9553L75.4639 74.0447ZM75.9619 73.5H56V74.5H75.9619V73.5ZM88.7822 37.0533C89.2798 37.0045 89.2798 37.0045 89.2798 37.0044C89.2798 37.0043 89.2798 37.0042 89.2798 37.0041C89.2797 37.0038 89.2797 37.0034 89.2796 37.0029C89.2795 37.0018 89.2794 37.0002 89.2792 36.998C89.2787 36.9938 89.2781 36.9874 89.2773 36.9789C89.2756 36.962 89.2731 36.9368 89.2699 36.9037C89.2633 36.8373 89.2536 36.739 89.2409 36.611C89.2155 36.3551 89.1782 35.9805 89.1306 35.5061C89.0353 34.5573 88.8988 33.2089 88.7334 31.6102C88.4028 28.413 87.957 24.2139 87.4967 20.2082L86.5033 20.3223C86.9629 24.3228 87.4083 28.5177 87.7387 31.7131C87.904 33.3106 88.0404 34.658 88.1356 35.606C88.1832 36.08 88.2204 36.4541 88.2458 36.7097C88.2585 36.8375 88.2682 36.9357 88.2747 37.0019C88.278 37.035 88.2804 37.0601 88.2821 37.0769C88.2829 37.0853 88.2835 37.0916 88.284 37.0959C88.2842 37.098 88.2843 37.0996 88.2844 37.1006C88.2845 37.1012 88.2845 37.1016 88.2846 37.1018C88.2846 37.1019 88.2846 37.102 88.2846 37.1021C88.2846 37.1022 88.2846 37.1022 88.7822 37.0533ZM86.5 17V20.2652H87.5V17H86.5ZM87.4967 20.2082C87.3121 18.6011 87.125 17.0248 86.9421 15.5564L85.9498 15.68C86.1322 17.1444 86.3189 18.7175 86.5033 20.3223L87.4967 20.2082ZM86.9421 15.5564C86.5292 12.242 86.1341 9.45091 85.8322 8.10881L84.8565 8.3283C85.1457 9.6135 85.5352 12.3528 85.9498 15.68L86.9421 15.5564ZM86.0845 15.9637C86.3424 16.2335 86.5 16.5978 86.5 17H87.5C87.5 16.3303 87.236 15.7211 86.8074 15.2727L86.0845 15.9637ZM80.8552 8.55619C80.8525 9.71693 80.9272 12.1122 81.0388 15.0192L82.0381 14.9808C81.9263 12.0685 81.8526 9.69489 81.8552 8.55851L80.8552 8.55619ZM81.0388 15.0192C81.2006 19.2304 81.4409 24.5402 81.6407 28.7963C81.7407 30.9246 81.8305 32.7897 81.8953 34.1228C81.9277 34.7893 81.9539 35.3228 81.972 35.6898C81.981 35.8732 81.988 36.015 81.9928 36.111C81.9952 36.159 81.997 36.1955 81.9982 36.22C81.9988 36.2323 81.9993 36.2415 81.9996 36.2477C81.9997 36.2508 81.9998 36.2532 81.9999 36.2547C81.9999 36.2555 82 36.2561 82 36.2565C82 36.2567 82 36.2568 82 36.2569C82 36.257 82 36.2571 82.4994 36.2322C82.9988 36.2074 82.9988 36.2073 82.9988 36.2072C82.9988 36.2071 82.9988 36.207 82.9988 36.2068C82.9987 36.2064 82.9987 36.2058 82.9987 36.205C82.9986 36.2035 82.9985 36.2012 82.9983 36.1981C82.998 36.1919 82.9976 36.1827 82.9969 36.1704C82.9957 36.1459 82.9939 36.1095 82.9916 36.0615C82.9868 35.9657 82.9798 35.8239 82.9708 35.6406C82.9527 35.2738 82.9265 34.7405 82.8941 34.0742C82.8293 32.7415 82.7395 30.877 82.6396 28.7494C82.4398 24.4939 82.1997 19.1876 82.0381 14.9808L81.0388 15.0192ZM80.5022 15.5H81.5385V14.5H80.5022V15.5ZM82.4994 36.2322C82.9971 36.1841 82.9971 36.1841 82.9971 36.184C82.9971 36.1839 82.997 36.1837 82.997 36.1835C82.997 36.183 82.9969 36.1824 82.9968 36.1815C82.9967 36.1797 82.9964 36.1771 82.9961 36.1735C82.9954 36.1665 82.9944 36.156 82.993 36.142C82.9903 36.1142 82.9863 36.0727 82.9811 36.0184C82.9706 35.9097 82.9551 35.7495 82.9353 35.5432C82.8955 35.1306 82.8381 34.5338 82.7673 33.7969C82.6257 32.3232 82.4309 30.2893 82.2179 28.0488C81.7916 23.5673 81.2925 18.2608 81.0003 14.956L80.0042 15.044C80.2967 18.3527 80.7962 23.6623 81.2224 28.1435C81.4355 30.3844 81.6303 32.4186 81.7719 33.8925C81.8427 34.6295 81.9001 35.2264 81.9399 35.6391C81.9598 35.8455 81.9752 36.0057 81.9857 36.1145C81.991 36.1688 81.995 36.2103 81.9977 36.2381C81.999 36.2521 82 36.2626 82.0007 36.2697C82.001 36.2732 82.0013 36.2759 82.0015 36.2776C82.0015 36.2785 82.0016 36.2792 82.0017 36.2796C82.0017 36.2799 82.0017 36.28 82.0017 36.2801C82.0017 36.2802 82.0017 36.2803 82.4994 36.2322ZM81.0003 14.956C80.8823 13.6218 80.7987 12.6202 80.7668 12.1297L79.769 12.1944C79.8017 12.6987 79.8865 13.7125 80.0042 15.044L81.0003 14.956ZM74.3448 12.255C74.3628 13.0761 74.3891 14.0082 74.4218 15.0162L75.4213 14.9838C75.3887 13.9781 75.3624 13.0497 75.3446 12.2332L74.3448 12.255ZM74.4218 15.0162C74.5528 19.0532 74.7857 24.3191 74.9858 28.5741C75.0858 30.702 75.1777 32.5777 75.2445 33.9215C75.2779 34.5934 75.3051 35.1323 75.3239 35.5032C75.3333 35.6887 75.3406 35.8322 75.3456 35.9294C75.3481 35.9779 75.35 36.0149 75.3513 36.0398C75.3519 36.0522 75.3524 36.0616 75.3527 36.0679C75.3529 36.071 75.353 36.0734 75.3531 36.075C75.3531 36.0758 75.3531 36.0764 75.3532 36.0768C75.3532 36.077 75.3532 36.0771 75.3532 36.0772C75.3532 36.0773 75.3532 36.0774 75.8525 36.0516C76.3519 36.0259 76.3519 36.0259 76.3519 36.0258C76.3519 36.0257 76.3519 36.0255 76.3518 36.0253C76.3518 36.0249 76.3518 36.0243 76.3518 36.0236C76.3517 36.022 76.3516 36.0196 76.3514 36.0165C76.3511 36.0103 76.3506 36.0009 76.35 35.9885C76.3487 35.9637 76.3468 35.9268 76.3443 35.8783C76.3393 35.7813 76.332 35.6379 76.3226 35.4526C76.3038 35.0819 76.2767 34.5433 76.2433 33.8718C76.1765 32.5287 76.0846 30.6539 75.9847 28.5272C75.7847 24.2729 75.5521 19.0131 75.4213 14.9838L74.4218 15.0162ZM72.443 15.5H74.9216V14.5H72.443V15.5ZM75.8525 36.0516C76.3467 35.9756 76.3467 35.9755 76.3467 35.9754C76.3467 35.9753 76.3467 35.9752 76.3466 35.975C76.3466 35.9746 76.3465 35.974 76.3464 35.9732C76.3461 35.9716 76.3457 35.9693 76.3453 35.9661C76.3443 35.9599 76.3429 35.9506 76.341 35.9383C76.3372 35.9137 76.3315 35.877 76.3241 35.8288C76.3092 35.7325 76.2872 35.5903 76.2587 35.4063C76.2018 35.0383 76.1188 34.5035 76.0147 33.8363C75.8066 32.5018 75.5143 30.6371 75.1773 28.5167C74.5034 24.2764 73.6506 19.0104 72.9356 14.914L71.9505 15.086C72.6641 19.1745 73.516 24.4343 74.1897 28.6736C74.5265 30.7929 74.8187 32.6566 75.0267 33.9903C75.1307 34.6572 75.2136 35.1916 75.2705 35.5593C75.299 35.7431 75.321 35.8853 75.3358 35.9814C75.3432 36.0295 75.3489 36.0661 75.3527 36.0907C75.3545 36.1029 75.356 36.1122 75.3569 36.1184C75.3574 36.1215 75.3578 36.1238 75.358 36.1254C75.3581 36.1262 75.3582 36.1268 75.3583 36.1271C75.3583 36.1273 75.3583 36.1275 75.3583 36.1276C75.3584 36.1277 75.3584 36.1277 75.8525 36.0516ZM72.9356 14.914C72.519 12.5272 72.1473 10.5268 71.8844 9.35819L70.9088 9.57768C71.1657 10.7194 71.5336 12.6975 71.9505 15.086L72.9356 14.914ZM63 15.5H67.8177V14.5H63V15.5ZM67.0295 10.3877C67.1139 11.2399 67.2107 12.8706 67.3184 15.025L68.3171 14.975C68.2097 12.8261 68.1118 11.1701 68.0247 10.2892L67.0295 10.3877ZM67.3184 15.025C67.7107 22.8736 68.241 37.5435 68.8401 45.8799L69.8375 45.8082C69.2393 37.4849 68.7109 22.8527 68.3171 14.975L67.3184 15.025Z" fill="#27aae1"/>
</svg>
