<svg width="96" height="102" viewBox="0 0 96 102" fill="none" xmlns="http://www.w3.org/2000/svg">
<path d="M33 75H56C57.5 76.6667 58.5 79 61 81.5C63.5 84 69.5 88 69.5 88H33C31.8954 88 31 87.1046 31 86V77C31 75.8954 31.8954 75 33 75Z" fill="#27aae1"/>
<path d="M55.5 27H73C74.1045 27 75 27.8954 75 29V33C75 34.1046 74.1045 35 73 35H62.3188C61.5187 35 60.8143 34.5159 60.5017 33.7794C59.9631 32.5102 59.1681 31 58 31C56.7624 31 56.4422 32.6952 56.4377 34.0031C56.436 34.5309 56.0278 35 55.5 35C54.3954 35 53.5 34.1046 53.5 33V29C53.5 27.8954 54.3954 27 55.5 27Z" fill="#27aae1"/>
<path d="M28.5 16.5V33.5C28.5 33.9384 28.6411 34.3439 28.8803 34.6735L30 34L34.5 30C35 29.5 36.3 28.4 37.5 28C38.7 27.6 39.6667 27.8333 40 28C40.3333 28.1667 41.1 29 41.5 31C41.9 33 40.3333 34.8333 39.5 35.5H45.5C46.6046 35.5 47.5 34.6046 47.5 33.5V16.5C47.5 15.3954 46.6046 14.5 45.5 14.5H30.5C29.3954 14.5 28.5 15.3954 28.5 16.5Z" fill="#27aae1"/>
<path d="M90.3591 35.7891C89.2585 34.4671 89.0749 33.5073 89 31C88.9251 33.5073 88.7415 34.4671 87.6409 35.7891C87.2986 36.2003 87.2986 36.7997 87.6409 37.2109C88.7415 38.5329 88.9251 39.4927 89 42C89.0749 39.4927 89.2585 38.5329 90.3591 37.2109C90.7014 36.7997 90.7014 36.2003 90.3591 35.7891Z" fill="#27aae1" stroke="#27aae1" stroke-linecap="round" stroke-linejoin="round"/>
<path d="M35.5002 81C35.2241 81 35.0002 81.2239 35.0002 81.5C35.0002 81.7761 35.2241 82 35.5002 82V81ZM45.0002 77C44.7241 77 44.5002 77.2239 44.5002 77.5C44.5002 77.7761 44.7241 78 45.0002 78V77ZM44.0002 85C43.7241 85 43.5002 85.2239 43.5002 85.5C43.5002 85.7761 43.7241 86 44.0002 86V85ZM14.0001 19L14.4998 18.9855C14.492 18.7151 14.2706 18.5 14.0001 18.5C13.7296 18.5 13.5081 18.7151 13.5003 18.9855L14.0001 19ZM16.3793 26.8087L16.758 26.4822L16.3793 26.8087ZM11.6208 26.8087L11.2421 26.4822L11.6208 26.8087ZM14.0001 36L13.5003 36.0145C13.5081 36.2849 13.7296 36.5 14.0001 36.5C14.2706 36.5 14.492 36.2849 14.4998 36.0145L14.0001 36ZM16.3793 28.1913L16.758 28.5178L16.3793 28.1913ZM11.6208 28.1913L11.2421 28.5178H11.2421L11.6208 28.1913ZM46.0001 39.5C46.2762 39.5 46.5001 39.2761 46.5001 39C46.5001 38.7239 46.2762 38.5 46.0001 38.5V39.5ZM47.0001 42.5C47.2762 42.5 47.5001 42.2761 47.5001 42C47.5001 41.7239 47.2762 41.5 47.0001 41.5V42.5ZM44.0001 45.5C44.2762 45.5 44.5001 45.2761 44.5001 45C44.5001 44.7239 44.2762 44.5 44.0001 44.5V45.5ZM22.8894 66.0719C22.6474 66.2048 22.5589 66.5088 22.6919 66.7508C22.8248 66.9929 23.1288 67.0813 23.3708 66.9484L22.8894 66.0719ZM29.2701 60.0701L29.7193 60.2897L29.7194 60.2896L29.2701 60.0701ZM35.3301 39.6301L34.9433 39.3133L34.9432 39.3135L35.3301 39.6301ZM41.2401 29.1501L40.7863 29.36L40.7865 29.3606L41.2401 29.1501ZM36.9901 27.9101L37.1908 28.3681L37.1919 28.3676L36.9901 27.9101ZM33.1101 31.4501L32.7509 31.1023L32.7492 31.1042L33.1101 31.4501ZM25.7501 36.6201L26.0159 37.0437L26.0166 37.0432L25.7501 36.6201ZM19.5101 42.9401L19.051 42.7422L19.0504 42.7435L19.5101 42.9401ZM16.8014 47.6423C16.5983 47.8294 16.5853 48.1457 16.7723 48.3488C16.9594 48.552 17.2757 48.565 17.4788 48.3779L16.8014 47.6423ZM25.7638 31.3972C25.9832 31.2295 26.025 30.9157 25.8573 30.6963C25.6896 30.4769 25.3758 30.4351 25.1564 30.6028L25.7638 31.3972ZM17.3101 38.2301L16.9177 37.9203L16.917 37.9212L17.3101 38.2301ZM15.7701 41.6101L16.2475 41.7588L16.2476 41.7586L15.7701 41.6101ZM11.46 56.0202L11.9475 56.1312L11.9477 56.1305L11.46 56.0202ZM8.5 66.5502L8.04114 66.3516L8.04092 66.3521L8.5 66.5502ZM21.4601 73.0702L21.1951 72.6462L21.1945 72.6466L21.4601 73.0702ZM28.4801 70.0301L28.2207 69.6027L28.2194 69.6035L28.4801 70.0301ZM33.3742 57.6358C33.3798 57.3597 33.1606 57.1314 32.8845 57.1258C32.6084 57.1202 32.38 57.3395 32.3744 57.6155L33.3742 57.6358ZM50.5092 35.9208C50.2474 35.833 49.9639 35.974 49.8761 36.2358C49.7882 36.4976 49.9293 36.781 50.1911 36.8689L50.5092 35.9208ZM50.4149 42.2144C50.1411 42.1786 49.8901 42.3715 49.8543 42.6453C49.8185 42.9191 50.0115 43.1701 50.2853 43.2059L50.4149 42.2144ZM50.4636 45.0131C50.1947 44.9504 49.9259 45.1176 49.8632 45.3865C49.8005 45.6554 49.9677 45.9243 50.2366 45.9869L50.4636 45.0131ZM50.4917 50.0205C50.2269 49.9423 49.9488 50.0936 49.8706 50.3584C49.7924 50.6233 49.9437 50.9013 50.2085 50.9795L50.4917 50.0205ZM40.9959 57.3103C40.8138 57.1028 40.4979 57.0822 40.2903 57.2643C40.0828 57.4465 40.0622 57.7624 40.2443 57.9699L40.9959 57.3103ZM44.8501 62.9701L44.4139 63.2145L44.4143 63.2153L44.8501 62.9701ZM45.1501 64.5501L44.691 64.3521L44.6884 64.3583L45.1501 64.5501ZM43.3401 65.3001L43.3906 64.8027L43.3901 64.8026L43.3401 65.3001ZM34.9735 57.2919C34.7812 57.0938 34.4647 57.089 34.2665 57.2813C34.0684 57.4737 34.0636 57.7902 34.256 57.9884L34.9735 57.2919ZM30.2234 57.1401C29.9472 57.1415 29.7245 57.3665 29.7259 57.6426C29.7272 57.9188 29.9522 58.1415 30.2283 58.1401L30.2234 57.1401ZM48.3599 57.5499L48.3575 57.0499H48.3574L48.3599 57.5499ZM48.3501 6.5L48.3501 7H48.3501L48.3501 6.5ZM27.4601 6.50029L27.4601 6.00029H27.4601L27.4601 6.50029ZM24.9601 36.8039C24.9601 37.08 25.184 37.3039 25.4601 37.3039C25.7363 37.3039 25.9601 37.08 25.9601 36.8039H24.9601ZM46.0001 6.50002L46.0001 6.00002H46.0001L46.0001 6.50002ZM12.7555 90.1487L12.8725 89.6626L12.7555 90.1487ZM15.0411 88.7915L15.5198 88.9358L15.0411 88.7915ZM1.60376 77.1213L1.20146 76.8244L1.60376 77.1213ZM1.34418 79.03L1.80996 78.8482L1.34418 79.03ZM70.0001 1L70.4999 0.985515C70.492 0.715127 70.2706 0.5 70.0001 0.5C69.7296 0.5 69.5081 0.715127 69.5003 0.985515L70.0001 1ZM72.3793 8.80866L72.758 8.48215L72.3793 8.80866ZM67.6208 8.80866L67.2421 8.48215L67.6208 8.80866ZM70.0001 18L69.5003 18.0145C69.5081 18.2849 69.7296 18.5 70.0001 18.5C70.2706 18.5 70.492 18.2849 70.4999 18.0145L70.0001 18ZM72.3793 10.1913L72.758 10.5179V10.5178L72.3793 10.1913ZM67.6208 10.1913L67.2421 10.5178V10.5179L67.6208 10.1913ZM94.5622 95.0777L94.9396 94.7498H94.9395L94.5622 95.0777ZM82.7081 79.9524L82.2134 80.0249L82.7081 79.9524ZM78.4931 64.643L78.9284 64.3969L78.4931 64.643ZM78.2892 64.0182L77.7938 64.0859V64.0859L78.2892 64.0182ZM76.2218 60.0977L76.5324 59.7059L76.2218 60.0977ZM75.4253 59.0813L75.8639 58.8411H75.8639L75.4253 59.0813ZM67.2642 51.3923L66.9405 51.7733V51.7733L67.2642 51.3923ZM66.8631 50.7898L66.3873 50.9435L66.8631 50.7898ZM58.4831 31.0587L58.5757 30.5673L58.4831 31.0587ZM48.1206 61.3584L47.6388 61.4922L48.1206 61.3584ZM73.1601 91.2516L73.6396 91.1099C73.6155 91.0283 73.5709 90.9542 73.5102 90.8947L73.1601 91.2516ZM60.076 49.2836L60.5559 49.1432L60.076 49.2836ZM61.7744 54.9027L62.2571 54.7723C62.2555 54.7663 62.2537 54.7603 62.2519 54.7544L61.7744 54.9027ZM60.5069 67.1947L60.1401 66.8549L60.5069 67.1947ZM53.9948 62.9448L53.5506 63.1744L53.9948 62.9448ZM57.8685 60.432L58.339 60.6011L57.8685 60.432ZM56.6552 65.0868L56.7309 64.5926L56.6552 65.0868ZM60.8545 62.484L60.3932 62.2912L60.8545 62.484ZM59.2625 64.5395L58.9844 64.1239H58.9844L59.2625 64.5395ZM61.681 65.5308C61.9096 65.376 61.9694 65.0651 61.8146 64.8365C61.6597 64.6078 61.3488 64.548 61.1202 64.7029L61.681 65.5308ZM75.5507 99.3404L75.0712 99.4821L75.5507 99.3404ZM76.9903 100.583L77.0524 100.087L76.9903 100.583ZM94.3403 97.5597L94.0468 97.1549L94.3403 97.5597ZM60.9513 81H35.5002V82H60.9513V81ZM57.5633 77H45.0002V78H57.5633V77ZM65.8114 85H44.0002V86H65.8114V85ZM13.5003 19.0145C13.56 21.0757 13.6659 22.5202 14.0214 23.7416C14.3833 24.9854 14.9943 25.968 16.0007 27.1352L16.758 26.4822C15.8094 25.382 15.2905 24.524 14.9815 23.4622C14.666 22.3779 14.5597 21.0517 14.4998 18.9855L13.5003 19.0145ZM13.5003 18.9855C13.4404 21.0517 13.3341 22.3779 13.0186 23.4622C12.7096 24.524 12.1907 25.382 11.2421 26.4822L11.9995 27.1352C13.0058 25.968 13.6168 24.9854 13.9788 23.7416C14.3342 22.5202 14.4401 21.0757 14.4998 19.0145L13.5003 18.9855ZM14.4998 36.0145C14.5597 33.9483 14.666 32.6221 14.9815 31.5378C15.2905 30.476 15.8094 29.618 16.758 28.5178L16.0007 27.8648C14.9943 29.032 14.3833 30.0146 14.0214 31.2584C13.6659 32.4798 13.56 33.9243 13.5003 35.9855L14.4998 36.0145ZM14.4998 35.9855C14.4401 33.9243 14.3342 32.4798 13.9788 31.2584C13.6168 30.0146 13.0058 29.032 11.9995 27.8648L11.2421 28.5178C12.1907 29.618 12.7096 30.476 13.0186 31.5378C13.3341 32.6221 13.4404 33.9483 13.5003 36.0145L14.4998 35.9855ZM11.2421 26.4822C10.7385 27.0662 10.7385 27.9338 11.2421 28.5178L11.9995 27.8648C11.8194 27.656 11.8194 27.344 11.9995 27.1352L11.2421 26.4822ZM16.0007 27.1352C16.1807 27.344 16.1807 27.656 16.0007 27.8648L16.758 28.5178C17.2616 27.9338 17.2616 27.0662 16.758 26.4822L16.0007 27.1352ZM46.0001 38.5H36.0001V39.5H46.0001V38.5ZM47.0001 41.5H34.0001V42.5H47.0001V41.5ZM44.0001 44.5H33.0001V45.5H44.0001V44.5ZM23.3708 66.9484C26.1014 65.4487 28.3541 63.0822 29.7193 60.2897L28.8209 59.8505C27.5461 62.4581 25.4389 64.6716 22.8894 66.0719L23.3708 66.9484ZM29.7194 60.2896C31.3368 56.9778 31.7234 53.1581 32.2694 49.5921C32.822 45.9825 33.5369 42.6109 35.7171 39.9468L34.9432 39.3135C32.5733 42.2094 31.8332 45.8328 31.2809 49.4407C30.7218 53.0922 30.3535 56.7125 28.8208 59.8507L29.7194 60.2896ZM35.7169 39.947C36.3702 39.1496 37.1355 38.4482 37.9333 37.7209C38.722 37.0016 39.5438 36.2559 40.2548 35.3995L39.4854 34.7607C38.8265 35.5544 38.0582 36.2536 37.2595 36.9819C36.4697 37.7021 35.65 38.4507 34.9433 39.3133L35.7169 39.947ZM40.2548 35.3995C41.6709 33.6941 42.7157 31.1428 41.6937 28.9397L40.7865 29.3606C41.5645 31.0375 40.8094 33.1662 39.4854 34.7607L40.2548 35.3995ZM41.6939 28.9403C40.7995 27.0063 38.5505 26.6756 36.7884 27.4527L37.1919 28.3676C38.6497 27.7247 40.2008 28.094 40.7863 29.36L41.6939 28.9403ZM36.7894 27.4522C35.8923 27.8454 35.1763 28.4663 34.5437 29.1234C34.2274 29.4519 33.9249 29.7971 33.6317 30.1313C33.3356 30.4685 33.0486 30.795 32.751 31.1023L33.4693 31.798C33.7867 31.4703 34.0896 31.1255 34.3833 30.7909C34.6797 30.4532 34.9666 30.1259 35.2641 29.8169C35.8589 29.199 36.4679 28.6849 37.1908 28.3681L36.7894 27.4522ZM32.7492 31.1042C30.7254 33.2155 28.0769 34.5635 25.4836 36.1971L26.0166 37.0432C28.5033 35.4768 31.3348 34.0248 33.4711 31.7961L32.7492 31.1042ZM25.4844 36.1966C22.9199 37.8057 20.3049 39.8338 19.051 42.7422L19.9693 43.1381C21.0953 40.5264 23.4803 38.6346 26.0159 37.0437L25.4844 36.1966ZM19.0504 42.7435C18.856 43.198 18.6965 43.6692 18.5476 44.1277C18.3965 44.5925 18.2583 45.0378 18.0993 45.472C17.7822 46.3383 17.4084 47.0834 16.8014 47.6423L17.4788 48.3779C18.2619 47.6569 18.703 46.7319 19.0384 45.8158C19.2057 45.3587 19.3531 44.8846 19.4986 44.4367C19.6462 43.9823 19.7942 43.5473 19.9698 43.1368L19.0504 42.7435ZM25.4601 31C25.1564 30.6028 25.1564 30.6028 25.1563 30.6029C25.1562 30.6029 25.1562 30.603 25.156 30.6031C25.1558 30.6033 25.1555 30.6035 25.1551 30.6038C25.1543 30.6044 25.1532 30.6053 25.1516 30.6065C25.1485 30.6088 25.144 30.6123 25.138 30.6169C25.1261 30.6261 25.1084 30.6396 25.0854 30.6573C25.0393 30.6928 24.9717 30.745 24.885 30.8123C24.7117 30.9468 24.4621 31.1416 24.1565 31.383C23.5455 31.8659 22.7097 32.5363 21.811 33.2862C20.0281 34.7738 17.95 36.613 16.9177 37.9203L17.7025 38.54C18.6602 37.3272 20.6571 35.5514 22.4517 34.054C23.3418 33.3113 24.1704 32.6467 24.7765 32.1676C25.0795 31.9282 25.3268 31.7353 25.4981 31.6023C25.5837 31.5359 25.6504 31.4844 25.6955 31.4497C25.7181 31.4323 25.7352 31.4191 25.7467 31.4103C25.7525 31.4059 25.7568 31.4026 25.7597 31.4004C25.7611 31.3993 25.7622 31.3985 25.7629 31.3979C25.7632 31.3977 25.7635 31.3975 25.7636 31.3974C25.7637 31.3973 25.7638 31.3973 25.7638 31.3972C25.7638 31.3972 25.7638 31.3972 25.4601 31ZM16.917 37.9212C16.0822 38.9836 15.6601 40.28 15.2927 41.4617L16.2476 41.7586C16.6202 40.5602 16.998 39.4367 17.7033 38.5391L16.917 37.9212ZM15.2927 41.4615C13.8317 46.1527 12.0682 51.0641 10.9723 55.91L11.9477 56.1305C13.0318 51.3363 14.7686 46.5075 16.2475 41.7588L15.2927 41.4615ZM10.9725 55.9093C10.1568 59.4943 9.46785 63.0554 8.04114 66.3516L8.95886 66.7488C10.4322 63.345 11.1432 59.6661 11.9475 56.1312L10.9725 55.9093ZM8.04092 66.3521C7.4833 67.6443 6.18939 69.7033 4.80866 71.7419C3.43647 73.7679 2.00641 75.7336 1.20146 76.8244L2.00607 77.4182C2.81462 76.3226 4.25362 74.3446 5.63663 72.3027C7.01111 70.2732 8.35856 68.1399 8.95908 66.7483L8.04092 66.3521ZM0.878402 79.2118C2.10318 82.3498 3.30524 84.8025 5.08404 86.6725C6.87557 88.556 9.21361 89.8099 12.6384 90.6348L12.8725 89.6626C9.58027 88.8696 7.43319 87.6913 5.8086 85.9833C4.17128 84.262 3.02622 81.9643 1.80996 78.8482L0.878402 79.2118ZM15.5198 88.9358C16.1479 86.8525 17.2792 83.2287 18.4862 79.9822C19.0902 78.3578 19.7091 76.8387 20.2898 75.6578C20.5804 75.0668 20.8565 74.5707 21.1111 74.1921C21.3743 73.8008 21.5832 73.5832 21.7258 73.4938L21.1945 72.6466C20.8671 72.8519 20.5623 73.2162 20.2814 73.634C19.9919 74.0643 19.6934 74.6043 19.3924 75.2165C18.79 76.4417 18.1575 77.9968 17.5489 79.6338C16.3308 82.91 15.1924 86.5575 14.5624 88.6472L15.5198 88.9358ZM21.7251 73.4942C22.8297 72.8039 23.9474 72.4173 25.1241 72.0159C26.2904 71.618 27.5168 71.2048 28.7408 70.4568L28.2194 69.6035C27.1034 70.2855 25.9798 70.6673 24.8012 71.0695C23.6328 71.4681 22.4105 71.8866 21.1951 72.6462L21.7251 73.4942ZM28.7395 70.4576C30.7896 69.2135 31.9172 67.0807 32.5472 64.7615C33.1777 62.4407 33.3291 59.8634 33.3742 57.6358L32.3744 57.6155C32.3296 59.828 32.1789 62.3029 31.5822 64.4993C30.9851 66.6973 29.9607 68.5468 28.2207 69.6027L28.7395 70.4576ZM50.1911 36.8689C50.9773 37.1327 52.3519 37.5342 53.6146 38.0625C54.2437 38.3257 54.8198 38.6105 55.2614 38.9099C55.7195 39.2205 55.9547 39.4949 56.0258 39.7083L56.9744 39.392C56.7956 38.8554 56.327 38.4242 55.8226 38.0822C55.3017 37.729 54.6565 37.4144 54.0006 37.14C52.6933 36.5931 51.243 36.167 50.5092 35.9208L50.1911 36.8689ZM56.0258 39.7083C56.216 40.279 56.0832 40.8128 55.7556 41.2638C55.42 41.7257 54.8916 42.0783 54.3628 42.2294L54.6375 43.1909C55.3686 42.982 56.0902 42.5046 56.5646 41.8515C57.047 41.1875 57.2842 40.3213 56.9744 39.392L56.0258 39.7083ZM54.3628 42.2294C53.2203 42.5558 51.7382 42.3874 50.4149 42.2144L50.2853 43.2059C51.562 43.3729 53.2599 43.5845 54.6375 43.1909L54.3628 42.2294ZM50.3501 45.5C50.2366 45.9869 50.2366 45.9869 50.2366 45.9869C50.2366 45.9869 50.2366 45.987 50.2367 45.987C50.2368 45.987 50.2371 45.9871 50.2374 45.9871C50.2381 45.9873 50.2391 45.9875 50.2406 45.9879C50.2435 45.9886 50.248 45.9896 50.254 45.991C50.266 45.9939 50.2841 45.9982 50.3078 46.0039C50.3553 46.0153 50.4254 46.0324 50.5149 46.0547C50.694 46.0993 50.9505 46.1649 51.2585 46.2483C51.8755 46.4153 52.6949 46.6526 53.5117 46.9351C54.3336 47.2194 55.1301 47.5419 55.7129 47.8749C56.0058 48.0422 56.221 48.1991 56.3569 48.3381C56.4236 48.4063 56.4616 48.4606 56.4817 48.4993C56.4914 48.5179 56.4959 48.531 56.4981 48.539C56.5001 48.5466 56.5001 48.55 56.5001 48.5502H57.5001C57.5001 48.1733 57.2935 47.8656 57.0718 47.6389C56.8441 47.406 56.5397 47.1956 56.2091 47.0067C55.5451 46.6272 54.6791 46.2808 53.8386 45.9901C52.9928 45.6975 52.1497 45.4535 51.5198 45.283C51.2044 45.1976 50.9414 45.1304 50.7568 45.0844C50.6645 45.0614 50.5917 45.0437 50.5418 45.0317C50.5168 45.0256 50.4975 45.0211 50.4844 45.0179C50.4778 45.0164 50.4728 45.0152 50.4693 45.0144C50.4675 45.014 50.4662 45.0137 50.4653 45.0134C50.4648 45.0133 50.4644 45.0132 50.4641 45.0132C50.464 45.0131 50.4639 45.0131 50.4638 45.0131C50.4637 45.0131 50.4636 45.0131 50.3501 45.5ZM56.5001 48.5502C56.5001 49.1253 56.2252 49.6111 55.807 49.9871C55.3828 50.3686 54.8417 50.6064 54.4017 50.6763L54.5586 51.6639C55.1885 51.5639 55.9074 51.2417 56.4757 50.7307C57.05 50.2143 57.5001 49.4751 57.5001 48.5502H56.5001ZM54.4017 50.6763C53.9613 50.7463 53.2676 50.6737 52.5035 50.5244C51.758 50.3786 51.0098 50.1734 50.4917 50.0205L50.2085 50.9795C50.7404 51.1366 51.5222 51.3515 52.3117 51.5058C53.0826 51.6565 53.9289 51.764 54.5586 51.6639L54.4017 50.6763ZM40.6201 57.6401C40.2443 57.9699 40.2443 57.9699 40.2443 57.97C40.2443 57.97 40.2444 57.97 40.2444 57.9701C40.2445 57.9702 40.2447 57.9703 40.2448 57.9706C40.2452 57.971 40.2458 57.9717 40.2466 57.9726C40.2482 57.9744 40.2506 57.9772 40.2539 57.9808C40.2603 57.9882 40.2699 57.9991 40.2824 58.0135C40.3076 58.0423 40.3447 58.0848 40.3922 58.1394C40.4872 58.2487 40.6241 58.4067 40.7908 58.6006C41.1244 58.9886 41.577 59.5203 42.054 60.0955C43.0222 61.2632 44.0459 62.5577 44.4139 63.2145L45.2863 62.7257C44.8643 61.9725 43.773 60.602 42.8238 59.4572C42.342 58.8762 41.8853 58.3398 41.5491 57.9487C41.381 57.7532 41.2429 57.5938 41.1468 57.4832C41.0987 57.4279 41.0611 57.3848 41.0355 57.3555C41.0226 57.3408 41.0128 57.3296 41.0062 57.322C41.0028 57.3182 41.0003 57.3153 40.9986 57.3134C40.9977 57.3124 40.9971 57.3117 40.9966 57.3112C40.9964 57.3109 40.9962 57.3107 40.9961 57.3106C40.9961 57.3105 40.996 57.3104 40.996 57.3104C40.996 57.3104 40.9959 57.3103 40.6201 57.6401ZM44.4143 63.2153C44.5416 63.4415 44.6465 63.6639 44.6992 63.8717C44.7512 64.0768 44.7432 64.2311 44.691 64.3521L45.6092 64.7482C45.777 64.3592 45.7541 63.9635 45.6685 63.626C45.5837 63.2913 45.4287 62.9788 45.2859 62.725L44.4143 63.2153ZM44.6884 64.3583C44.6248 64.5114 44.484 64.6379 44.2392 64.7226C43.9913 64.8083 43.6823 64.8323 43.3906 64.8027L43.2897 65.7976C43.6879 65.838 44.1489 65.812 44.5661 65.6677C44.9863 65.5223 45.4055 65.2389 45.6119 64.7419L44.6884 64.3583ZM43.3901 64.8026C41.6861 64.6313 40.1633 63.4933 38.9353 62.0996L38.185 62.7607C39.4769 64.227 41.2141 65.5889 43.2901 65.7976L43.3901 64.8026ZM38.9353 62.0996C38.3177 61.3987 37.6736 60.5572 37.0038 59.7009C36.3409 58.8534 35.6545 57.9935 34.9735 57.2919L34.256 57.9884C34.895 58.6468 35.5513 59.4669 36.2161 60.3169C36.874 61.1581 37.5425 62.0316 38.185 62.7607L38.9353 62.0996ZM30.2283 58.1401L48.3624 58.0499L48.3574 57.0499L30.2234 57.1401L30.2283 58.1401ZM50.8501 55.5499V8.5H49.8501V55.5499H50.8501ZM24.9601 8.50029V36.8039H25.9601V8.50029H24.9601ZM27.4601 6.00029C26.0794 6.00031 24.9601 7.11959 24.9601 8.50029H25.9601C25.9601 7.67187 26.6317 7.0003 27.4601 7.00029L27.4601 6.00029ZM50.8501 8.5C50.8501 7.11928 49.7308 5.99999 48.3501 6L48.3501 7C49.1785 6.99999 49.8501 7.67157 49.8501 8.5H50.8501ZM48.3624 58.0499C49.7383 58.0431 50.8501 56.9258 50.8501 55.5499H49.8501C49.8501 56.3755 49.183 57.0458 48.3575 57.0499L48.3624 58.0499ZM48.3501 6L46.0001 6.00002L46.0001 7.00002L48.3501 7L48.3501 6ZM45.5001 6.50002V7H46.5001V6.50002H45.5001ZM46.0001 6.00002L30.0001 6.00027L30.0001 7.00027L46.0001 7.00002L46.0001 6.00002ZM30.0001 6.00027L27.4601 6.00029L27.4601 7.00029L30.0001 7.00027L30.0001 6.00027ZM29.5001 6.50027V7H30.5001V6.50027H29.5001ZM33.0001 10.5H43.0001V9.5H33.0001V10.5ZM45.5001 7C45.5001 8.38072 44.3808 9.5 43.0001 9.5V10.5C44.9331 10.5 46.5001 8.933 46.5001 7H45.5001ZM12.6384 90.6348C13.9135 90.9419 15.1523 90.1549 15.5198 88.9358L14.5624 88.6472C14.3367 89.3956 13.5952 89.8366 12.8725 89.6626L12.6384 90.6348ZM29.5001 7C29.5001 8.933 31.0671 10.5 33.0001 10.5V9.5C31.6194 9.5 30.5001 8.38071 30.5001 7H29.5001ZM1.20146 76.8244C0.694978 77.5107 0.565587 78.4103 0.878402 79.2118L1.80996 78.8482C1.62463 78.3734 1.69901 77.8342 2.00607 77.4182L1.20146 76.8244ZM69.5003 1.01449C69.56 3.07574 69.6659 4.52018 70.0214 5.74158C70.3833 6.98542 70.9943 7.96801 72.0007 9.13517L72.758 8.48215C71.8094 7.382 71.2905 6.52396 70.9815 5.46215C70.666 4.37789 70.5597 3.05166 70.4999 0.985515L69.5003 1.01449ZM69.5003 0.985515C69.4404 3.05166 69.3341 4.37789 69.0186 5.46215C68.7096 6.52396 68.1907 7.382 67.2421 8.48215L67.9995 9.13517C69.0058 7.96801 69.6168 6.98542 69.9788 5.74158C70.3342 4.52018 70.4401 3.07574 70.4999 1.01449L69.5003 0.985515ZM70.4999 18.0145C70.5597 15.9483 70.666 14.6221 70.9815 13.5378C71.2905 12.476 71.8094 11.618 72.758 10.5179L72.0007 9.86483C70.9943 11.032 70.3833 12.0146 70.0214 13.2584C69.6659 14.4798 69.56 15.9243 69.5003 17.9855L70.4999 18.0145ZM70.4999 17.9855C70.4401 15.9243 70.3342 14.4798 69.9788 13.2584C69.6168 12.0146 69.0058 11.032 67.9995 9.86483L67.2421 10.5179C68.1907 11.618 68.7096 12.476 69.0186 13.5378C69.3341 14.6221 69.4404 15.9483 69.5003 18.0145L70.4999 17.9855ZM67.2421 8.48215C66.7385 9.06623 66.7385 9.93377 67.2421 10.5178L67.9995 9.86483C67.8194 9.65598 67.8194 9.34402 67.9995 9.13517L67.2421 8.48215ZM72.0007 9.13517C72.1807 9.34402 72.1807 9.65598 72.0007 9.86483L72.758 10.5178C73.2616 9.93377 73.2616 9.06623 72.758 8.48215L72.0007 9.13517ZM94.9395 94.7498C93.3549 92.9264 90.4555 89.5583 87.9236 86.4438C86.6571 84.8857 85.487 83.3967 84.6205 82.1986C84.1867 81.5989 83.8342 81.0791 83.5847 80.664C83.4599 80.4563 83.3649 80.2814 83.2991 80.1403C83.2298 79.9914 83.2072 79.9096 83.2029 79.8799L82.2134 80.0249C82.239 80.1993 82.3104 80.3858 82.3926 80.5624C82.4784 80.7466 82.5924 80.9543 82.7276 81.1791C82.9981 81.6292 83.3692 82.1749 83.8102 82.7847C84.6932 84.0055 85.8771 85.5115 87.1477 87.0745C89.6901 90.2021 92.598 93.58 94.1848 95.4057L94.9395 94.7498ZM83.2029 79.8799C83.0155 78.6014 82.5228 75.7562 81.7933 72.7273C81.0675 69.7133 80.0936 66.4578 78.9284 64.3969L78.0579 64.8891C79.1479 66.817 80.096 69.9507 80.8211 72.9614C81.5426 75.9573 82.0299 78.7724 82.2134 80.0249L83.2029 79.8799ZM78.7846 63.9505C78.6317 62.8322 78.0454 60.9052 76.5324 59.7059L75.9112 60.4895C77.1348 61.4594 77.6572 63.0864 77.7938 64.0859L78.7846 63.9505ZM75.8639 58.8411C75.5566 58.28 75.0256 57.6411 74.3943 56.9823C73.7567 56.3168 72.9904 55.6044 72.1881 54.8952C70.5906 53.4832 68.8029 52.0436 67.588 51.0112L66.9405 51.7733C68.1897 52.8348 69.9334 54.2369 71.5258 55.6445C72.3185 56.3451 73.0618 57.037 73.6723 57.6741C74.2892 58.3179 74.7449 58.8797 74.9868 59.3214L75.8639 58.8411ZM67.3389 50.6361C66.2598 47.2957 64.5895 42.4325 62.9726 38.36C62.1649 36.3255 61.3656 34.4761 60.6563 33.1097C60.3026 32.4283 59.9631 31.8511 59.6482 31.4274C59.4909 31.2159 59.3302 31.0294 59.1668 30.8853C59.0101 30.7471 58.8109 30.6116 58.5757 30.5673L58.3905 31.55C58.3696 31.5461 58.4064 31.548 58.5052 31.6352C58.5973 31.7164 58.7113 31.8433 58.8456 32.024C59.1139 32.3849 59.4249 32.908 59.7688 33.5705C60.4548 34.8919 61.2395 36.7046 62.0432 38.729C63.6491 42.7739 65.3119 47.6147 66.3873 50.9435L67.3389 50.6361ZM53.8247 61.3479C52.9301 59.0194 51.224 57.963 49.7304 58.08C48.9888 58.1381 48.3151 58.4931 47.9031 59.1146C47.4898 59.7381 47.3814 60.5652 47.6388 61.4922L48.6023 61.2247C48.4057 60.5165 48.5152 60.0012 48.7366 59.6671C48.9593 59.3312 49.337 59.1138 49.8085 59.0769C50.741 59.0039 52.1076 59.667 52.8912 61.7065L53.8247 61.3479ZM47.6388 61.4922C48.5344 64.7178 48.8247 66.5009 50.4274 68.7852L51.246 68.2109C49.7681 66.1044 49.5228 64.5398 48.6023 61.2247L47.6388 61.4922ZM50.4274 68.7852C51.9735 70.9889 55.7535 76.1101 59.0935 80.2232L59.8698 79.5928C56.5465 75.5003 52.7805 70.3981 51.246 68.2109L50.4274 68.7852ZM59.0935 80.2232C60.8052 82.3311 63.3994 84.3422 65.9589 86.2315C68.546 88.1411 71.09 89.9216 72.81 91.6086L73.5102 90.8947C71.7251 89.1438 69.0958 87.304 66.5528 85.4269C63.9823 83.5295 61.4898 81.5878 59.8698 79.5928L59.0935 80.2232ZM58.5757 30.5673C58.066 30.4713 57.3726 30.408 56.833 30.8875C56.3128 31.3497 56.093 32.1798 56.0929 33.3989C56.0929 35.8737 57.0109 40.5903 59.5961 49.4241L60.5559 49.1432C57.9657 40.2925 57.0929 35.7091 57.0929 33.3989C57.093 32.2254 57.321 31.7917 57.4972 31.635C57.654 31.4957 57.9057 31.4586 58.3905 31.55L58.5757 30.5673ZM59.5961 49.4241C60.0978 51.1383 60.6628 53.0093 61.2969 55.051L62.2519 54.7544C61.6192 52.7173 61.0558 50.8515 60.5559 49.1432L59.5961 49.4241ZM59.7931 48.8714C58.8449 49.5222 57.3906 50.6381 56.094 51.8825C55.4455 52.5049 54.8285 53.167 54.3326 53.8256C53.8412 54.4783 53.4451 55.1582 53.2739 55.8147L54.2416 56.067C54.3651 55.5931 54.6736 55.0352 55.1314 54.4272C55.5847 53.8252 56.1616 53.2037 56.7864 52.604C58.0364 51.4043 59.4466 50.3221 60.359 49.6959L59.7931 48.8714ZM53.2739 55.8147C52.6645 58.1527 52.744 60.6243 52.8616 61.5878L53.8542 61.4666C53.7473 60.59 53.6724 58.2509 54.2416 56.067L53.2739 55.8147ZM60.1401 66.8549C59.872 67.1442 59.5444 67.2607 59.1461 67.2306C58.7269 67.1988 58.2184 67.0007 57.6575 66.6198C56.5377 65.8594 55.3402 64.4585 54.439 62.7152L53.5506 63.1744C54.5072 65.0248 55.8045 66.5703 57.0957 67.4471C57.7403 67.8849 58.4163 68.1781 59.0706 68.2277C59.7458 68.2788 60.3805 68.0667 60.8736 67.5346L60.1401 66.8549ZM54.439 62.7152C54.2126 62.2774 54.006 61.8199 53.8247 61.3479L52.8912 61.7065C53.0861 62.2138 53.3079 62.7049 53.5506 63.1744L54.439 62.7152ZM58.339 60.6011C59.3256 57.8555 61.2618 55.91 62.0737 55.3032L61.4751 54.5022C60.5379 55.2026 58.463 57.2987 57.3979 60.2629L58.339 60.6011ZM53.8062 63.4079C54.4302 63.6621 55.4763 63.7529 56.4801 63.1363L55.9567 62.2842C55.2648 62.7092 54.5597 62.635 54.1834 62.4818L53.8062 63.4079ZM56.4801 63.1363C57.2132 62.686 57.8774 61.8857 58.339 60.6011L57.3979 60.2629C56.9958 61.3822 56.4565 61.9772 55.9567 62.2842L56.4801 63.1363ZM55.7724 62.4841C55.5741 62.8752 55.3412 63.5048 55.3439 64.0986C55.3452 64.4009 55.4079 64.74 55.6158 65.0291C55.8333 65.3315 56.165 65.5176 56.5794 65.5811L56.7309 64.5926C56.5359 64.5627 56.463 64.4944 56.4277 64.4452C56.3828 64.3829 56.3446 64.2734 56.3438 64.0942C56.3422 63.725 56.5004 63.2597 56.6643 62.9364L55.7724 62.4841ZM61.2917 55.0332C61.6699 56.4322 61.8196 58.3497 61.7474 60.2764L62.7467 60.3139C62.821 58.3292 62.6707 56.3025 62.2571 54.7723L61.2917 55.0332ZM61.7474 60.2764C61.6938 61.7082 61.5185 63.1225 61.2346 64.306C60.9456 65.5109 60.5616 66.4001 60.1401 66.8549L60.8736 67.5346C61.4783 66.8821 61.9097 65.7787 62.207 64.5392C62.5095 63.2784 62.6912 61.7965 62.7467 60.3139L61.7474 60.2764ZM61.3159 62.6768C61.6822 61.8002 61.975 61.2873 62.1794 61.0049C62.2823 60.8628 62.3524 60.7935 62.3862 60.766C62.403 60.7523 62.4005 60.7574 62.3791 60.7671C62.3625 60.7745 62.2941 60.8032 62.193 60.7922L62.3012 59.7981C62.162 59.7829 62.0448 59.821 61.9693 59.8549C61.8889 59.891 61.8172 59.9398 61.7547 59.9906C61.6301 60.0921 61.502 60.2354 61.3693 60.4186C61.1026 60.7871 60.7753 61.3769 60.3932 62.2912L61.3159 62.6768ZM56.5794 65.5811C57.5434 65.7288 58.6049 65.5813 59.5406 64.955L58.9844 64.1239C58.2895 64.5891 57.4897 64.7089 56.7309 64.5926L56.5794 65.5811ZM59.5406 64.955C60.2597 64.4737 60.8766 63.7277 61.3159 62.6768L60.3932 62.2912C60.0191 63.1862 59.5188 63.7662 58.9844 64.1239L59.5406 64.955ZM58.7988 64.7265C58.9349 65.064 59.2381 65.5273 59.7388 65.7781C60.2852 66.0518 60.9588 66.0199 61.681 65.5308L61.1202 64.7029C60.6451 65.0246 60.3567 64.9692 60.1867 64.884C59.9712 64.7761 59.8039 64.5452 59.7262 64.3525L58.7988 64.7265ZM67.588 51.0112C67.4721 50.9128 67.3874 50.7861 67.3389 50.6361L66.3873 50.9435C66.4919 51.2672 66.6805 51.5523 66.9405 51.7733L67.588 51.0112ZM76.5324 59.7059C76.2749 59.5018 76.0579 59.1955 75.8639 58.8411L74.9868 59.3214C75.2057 59.7212 75.4998 60.1634 75.9112 60.4895L76.5324 59.7059ZM78.9284 64.3969C78.8554 64.2679 78.8075 64.1178 78.7846 63.9504L77.7938 64.0859C77.8311 64.3585 77.9133 64.6333 78.0579 64.8891L78.9284 64.3969ZM72.6806 91.3933L75.0712 99.4821L76.0302 99.1987L73.6396 91.1099L72.6806 91.3933ZM76.9282 101.079C83.7644 101.935 89.4064 101.755 94.6338 97.9645L94.0468 97.1549C89.1354 100.716 83.817 100.934 77.0524 100.087L76.9282 101.079ZM75.0712 99.4821C75.3226 100.333 76.0444 100.968 76.9282 101.079L77.0524 100.087C76.5776 100.027 76.1731 99.6823 76.0302 99.1987L75.0712 99.4821ZM94.1848 95.4057C94.6638 95.9569 94.5819 96.767 94.0468 97.1549L94.6338 97.9645C95.6963 97.1942 95.7601 95.6939 94.9396 94.7498L94.1848 95.4057Z" fill="#27aae1"/>
</svg>
