<svg width="96" height="96" viewBox="0 0 96 96" fill="none" xmlns="http://www.w3.org/2000/svg">
<path d="M53.9739 87.4482L53.9478 87.9475L53.9739 87.4482ZM37.1241 76.9092L37.4798 76.5577L37.4794 76.5574L37.1241 76.9092ZM31.4219 69.8973L31.8374 69.6191H31.8374L31.4219 69.8973ZM28.5785 61.9141L28.9672 62.2286L28.9673 62.2284L28.5785 61.9141ZM31.8976 61.5L31.7611 61.981L31.7613 61.981L31.8976 61.5ZM34.8797 64.0612L35.3272 63.8379L35.3217 63.8276L34.8797 64.0612ZM49.504 77.4409L49.3722 77.9233L49.3825 77.9259L49.504 77.4409ZM62.6618 73.1427L62.9798 73.5285L62.6618 73.1427ZM63.0763 72.8562L62.834 72.4188L63.0763 72.8562ZM68.6683 71.4774L68.6523 71.9771L68.6533 71.9771L68.6683 71.4774ZM76.1331 75.4976C76.3196 75.7013 76.6358 75.7152 76.8395 75.5287C77.0432 75.3422 77.0571 75.026 76.8706 74.8223L76.1331 75.4976ZM53.0202 70.7794L53.3139 71.1841L53.0202 70.7794ZM44.1756 69.5023L44.0974 69.9962L44.0975 69.9962L44.1756 69.5023ZM36.4183 66.82L35.9755 67.0521L35.9755 67.0522L36.4183 66.82ZM37.76 62.2553L37.6891 61.7603L37.76 62.2553ZM67.3138 65.3355L67.4698 64.8604L67.4698 64.8604L67.3138 65.3355ZM93.8079 83.1637L94.1792 82.8288L93.8079 83.1637ZM94.5001 85.1277L94.9979 85.175V85.175L94.5001 85.1277ZM92.8174 90.0879L93.2387 90.3572L93.2387 90.3572L92.8174 90.0879ZM86.3141 94.8281L86.1694 94.3495L86.3141 94.8281ZM83.1181 93.1786L83.5631 92.9507L83.1181 93.1786ZM78.848 87.9599L79.1504 87.5616L79.15 87.5613L78.848 87.9599ZM50.1461 86.9914L50.2386 86.5001L50.238 86.5L50.1461 86.9914ZM20.6939 64.8704L20.2482 64.6438L20.2466 64.6471L20.6939 64.8704ZM21.387 64.2651L21.611 64.7122H21.611L21.387 64.2651ZM56.4652 68.1478C56.6216 67.9202 56.5639 67.6089 56.3363 67.4526C56.1087 67.2962 55.7974 67.3539 55.641 67.5815L56.4652 68.1478ZM49.504 72.3628L49.4589 71.8648L49.504 72.3628ZM40.6759 71.8658C40.4014 71.8356 40.1544 72.0337 40.1242 72.3082C40.0941 72.5826 40.2921 72.8296 40.5666 72.8598L40.6759 71.8658ZM35.5784 81.8065C35.8219 81.9367 36.1249 81.8449 36.2551 81.6014C36.3853 81.3579 36.2935 81.0549 36.05 80.9247L35.5784 81.8065ZM16.3384 69.8973L16.0249 70.2868L16.0259 70.2877L16.3384 69.8973ZM14.5707 67.164L15.0643 67.2437L15.0647 67.2414L14.5707 67.164ZM16.3384 65.4756L16.5029 65.9478L16.5065 65.9465L16.3384 65.4756ZM20.5346 67.2214C20.7352 67.4112 21.0516 67.4024 21.2414 67.2019C21.4312 67.0013 21.4225 66.6848 21.222 66.495L20.5346 67.2214ZM16.6302 65.1738C16.5762 65.4446 16.7519 65.7079 17.0227 65.762C17.2935 65.816 17.5568 65.6403 17.6109 65.3695L16.6302 65.1738ZM18.4686 63.373L18.6957 63.8185L18.6969 63.8178L18.4686 63.373ZM21.391 64.4597C21.5759 64.6648 21.8921 64.681 22.0971 64.4961C22.3022 64.3111 22.3184 63.9949 22.1335 63.7899L21.391 64.4597ZM46.2554 40.7872C46.2554 40.5111 46.0316 40.2872 45.7554 40.2872C45.4793 40.2872 45.2554 40.5111 45.2554 40.7872H46.2554ZM58.8937 40.7872C58.8937 40.5111 58.6699 40.2872 58.3937 40.2872C58.1176 40.2872 57.8937 40.5111 57.8937 40.7872H58.8937ZM31.0181 42.3949C31.2714 42.2851 31.3878 41.9907 31.278 41.7373C31.1682 41.484 30.8738 41.3676 30.6204 41.4774L31.0181 42.3949ZM13.3864 48.9454C13.133 49.0552 13.0166 49.3497 13.1264 49.603C13.2362 49.8564 13.5306 49.9728 13.784 49.863L13.3864 48.9454ZM26.6767 34.3787C26.9446 34.4456 27.2161 34.2828 27.283 34.0149C27.35 33.747 27.1871 33.4755 26.9192 33.4085L26.6767 34.3787ZM13.132 29.9617C12.8641 29.8947 12.5926 30.0576 12.5257 30.3255C12.4587 30.5934 12.6216 30.8649 12.8895 30.9318L13.132 29.9617ZM72.3798 41.4774C72.1264 41.3676 71.832 41.484 71.7222 41.7373C71.6124 41.9907 71.7288 42.2851 71.9822 42.3949L72.3798 41.4774ZM89.2162 49.863C89.4696 49.9728 89.764 49.8564 89.8738 49.603C89.9836 49.3497 89.8672 49.0552 89.6138 48.9454L89.2162 49.863ZM76.081 33.4085C75.8131 33.4755 75.6502 33.747 75.7172 34.0149C75.7841 34.2828 76.0556 34.4456 76.3235 34.3787L76.081 33.4085ZM90.1107 30.9318C90.3786 30.8649 90.5415 30.5934 90.4745 30.3255C90.4076 30.0576 90.1361 29.8947 89.8682 29.9617L90.1107 30.9318ZM54.1705 86.9884C43.7329 82.5251 40.6156 79.7313 37.4798 76.5577L36.7685 77.2606C40.0038 80.5348 43.2322 83.3986 53.7773 87.9079L54.1705 86.9884ZM37.4794 76.5574C35.5216 74.58 33.464 72.049 31.8374 69.6191L31.0064 70.1754C32.6665 72.6553 34.7639 75.2361 36.7688 77.261L37.4794 76.5574ZM31.8374 69.6191C30.6757 67.8837 29.7474 66.22 29.2283 64.8598C28.9683 64.1784 28.8202 63.5968 28.7867 63.1339C28.7527 62.6649 28.8401 62.3856 28.9672 62.2286L28.1898 61.5996C27.8365 62.0362 27.7463 62.614 27.7893 63.2062C27.8326 63.8044 28.0161 64.488 28.294 65.2164C28.851 66.6758 29.8247 68.4101 31.0064 70.1754L31.8374 69.6191ZM28.9673 62.2284C29.1432 62.0108 29.5382 61.8497 30.1269 61.8092C30.6895 61.7706 31.3057 61.8518 31.7611 61.981L32.034 61.0189C31.4784 60.8614 30.7466 60.7643 30.0583 60.8116C29.3959 60.8571 28.6368 61.0465 28.1896 61.5998L28.9673 62.2284ZM31.7613 61.981C33.3927 62.4433 34.2179 63.8789 34.4376 64.2948L35.3217 63.8276C35.0837 63.377 34.0903 61.6016 32.0339 61.0189L31.7613 61.981ZM34.4323 64.2845C36.0269 67.4802 37.9481 70.3794 40.3594 72.7302L41.0574 72.0142C38.7491 69.7636 36.8881 66.9664 35.3271 63.838L34.4323 64.2845ZM40.3594 72.7302C42.8098 75.1193 45.7608 76.9363 49.3722 77.9232L49.6358 76.9586C46.2013 76.02 43.3968 74.295 41.0574 72.0142L40.3594 72.7302ZM49.3825 77.9259C54.6263 79.2395 59.181 76.6605 62.9798 73.5285L62.3437 72.7569C58.5996 75.8437 54.3824 78.1475 49.6255 76.9559L49.3825 77.9259ZM63.3186 73.2936C64.2997 72.7502 66.1909 71.8983 68.6523 71.9771L68.6843 70.9776C65.9746 70.8908 63.9003 71.8283 62.834 72.4188L63.3186 73.2936ZM68.6533 71.9771C72.9043 72.1046 75.5874 74.9017 76.1331 75.4976L76.8706 74.8223C76.2844 74.1822 73.3594 71.1178 68.6832 70.9776L68.6533 71.9771ZM53.0804 70.2831C49.5237 69.8511 46.6329 69.3845 44.2536 69.0084L44.0975 69.9962C46.4744 70.3719 49.3825 70.8413 52.9599 71.2758L53.0804 70.2831ZM44.2537 69.0084C41.5264 68.577 39.8111 68.2575 38.6884 67.8828C37.5917 67.5167 37.1429 67.1252 36.8611 66.5878L35.9755 67.0522C36.4186 67.8974 37.1302 68.4169 38.3718 68.8313C39.5874 69.2371 41.3883 69.5675 44.0974 69.9962L44.2537 69.0084ZM36.8612 66.5879C36.5074 65.913 36.3138 64.9621 36.4493 64.1731C36.516 63.785 36.6575 63.4616 36.8712 63.2243C37.0792 62.9934 37.3814 62.8145 37.8308 62.7502L37.6891 61.7603C37.0258 61.8552 36.5046 62.1371 36.1282 62.555C35.7575 62.9666 35.5537 63.4801 35.4638 64.0038C35.2861 65.0384 35.5344 66.2107 35.9755 67.0521L36.8612 66.5879ZM37.8308 62.7502C40.0096 62.4383 53.7813 61.4207 67.1579 65.8106L67.4698 64.8604C53.8994 60.407 39.9612 61.4351 37.6891 61.7603L37.8308 62.7502ZM67.1579 65.8106C79.9389 70.0058 88.8133 78.3705 93.4365 83.4985L94.1792 82.8288C89.5016 77.6407 80.4868 69.1331 67.4698 64.8604L67.1579 65.8106ZM94.0023 85.0804C93.8836 86.3297 93.5083 88.079 92.3962 89.8185L93.2387 90.3572C94.4606 88.446 94.869 86.5305 94.9979 85.175L94.0023 85.0804ZM92.3962 89.8185C90.6602 92.5334 88.0535 93.7801 86.1694 94.3495L86.4588 95.3068C88.4694 94.6991 91.3265 93.3476 93.2387 90.3572L92.3962 89.8185ZM83.5631 92.9507C82.6371 91.1427 81.2508 89.1564 79.1504 87.5616L78.5457 88.3581C80.4951 89.8382 81.7947 91.6917 82.6731 93.4066L83.5631 92.9507ZM79.15 87.5613C75.5291 84.8178 71.7811 84.8505 67.7082 85.4523C63.6104 86.0578 59.2174 87.2218 54 86.9488L53.9478 87.9475C59.2981 88.2274 63.8853 87.028 67.8543 86.4416C71.8482 85.8514 75.2534 85.8635 78.5461 88.3584L79.15 87.5613ZM54 86.9488C52.7895 86.8855 51.5373 86.7444 50.2386 86.5001L50.0537 87.4828C51.3988 87.7359 52.6955 87.882 53.9478 87.9475L54 86.9488ZM50.238 86.5C43.0246 85.1515 36.3015 81.5013 31.1152 77.511C28.5242 75.5174 26.3252 73.4454 24.6478 71.5453C22.963 69.6369 21.8294 67.9301 21.3364 66.669L20.405 67.0331C20.9604 68.4537 22.1823 70.2635 23.8981 72.2071C25.6212 74.159 27.8679 76.2742 30.5054 78.3035C35.7765 82.3591 42.6426 86.0974 50.0542 87.4829L50.238 86.5ZM21.3364 66.669C21.0141 65.8445 21.0172 65.3424 21.1413 65.0936L20.2466 64.6471C19.9208 65.3 20.0639 66.1606 20.405 67.0331L21.3364 66.669ZM21.1397 65.097C21.2296 64.92 21.4048 64.8155 21.611 64.7122L21.163 63.8181C20.9623 63.9187 20.5016 64.1454 20.2482 64.6438L21.1397 65.097ZM21.611 64.7122C21.7035 64.6658 21.7997 64.6279 21.8998 64.5981L21.614 63.6398C21.4598 63.6858 21.3092 63.7449 21.163 63.8181L21.611 64.7122ZM21.8998 64.5981C22.5893 64.3925 23.4865 64.5634 24.5187 65.04C25.536 65.5096 26.6005 66.2372 27.5775 67.0124C28.5513 67.7851 29.4214 68.5916 30.049 69.2064C30.3624 69.5133 30.6144 69.7715 30.7875 69.9524C30.8741 70.0428 30.9408 70.1138 30.9857 70.162C31.0081 70.186 31.0251 70.2043 31.0362 70.2165C31.0418 70.2226 31.046 70.2271 31.0487 70.23C31.05 70.2315 31.051 70.2325 31.0516 70.2332C31.0519 70.2335 31.0521 70.2337 31.0522 70.2338C31.0522 70.2339 31.0522 70.2339 31.0523 70.234C31.0523 70.2339 31.0522 70.2339 31.4219 69.8973C31.7917 69.5607 31.7916 69.5606 31.7915 69.5605C31.7914 69.5604 31.7913 69.5603 31.7911 69.5601C31.7909 69.5598 31.7905 69.5594 31.7901 69.5589C31.7892 69.5579 31.7879 69.5565 31.7862 69.5547C31.7829 69.5511 31.7781 69.5459 31.7718 69.5391C31.7593 69.5255 31.741 69.5057 31.7172 69.4801C31.6695 69.429 31.5997 69.3547 31.5099 69.2609C31.3304 69.0733 31.0708 68.8074 30.7487 68.4919C30.1053 67.8618 29.2086 67.0301 28.1991 66.2291C27.1928 65.4306 26.0575 64.649 24.9379 64.1321C23.8331 63.622 22.6564 63.3289 21.614 63.6398L21.8998 64.5981ZM55.641 67.5815C55.2346 68.1729 54.0953 69.3811 52.7264 70.3748L53.3139 71.1841C54.7524 70.1398 55.9802 68.8536 56.4652 68.1478L55.641 67.5815ZM52.7264 70.3748C51.6276 71.1725 50.4584 71.7743 49.4589 71.8648L49.5491 72.8607C50.8235 72.7453 52.1735 72.0119 53.3139 71.1841L52.7264 70.3748ZM49.4589 71.8648C46.9433 72.0926 43.5997 72.1779 40.7614 71.875L40.6553 72.8694C43.5783 73.1813 46.9912 73.0924 49.5491 72.8607L49.4589 71.8648ZM40.7614 71.875C40.7329 71.872 40.7043 71.8689 40.6759 71.8658L40.5666 72.8598C40.5961 72.863 40.6257 72.8662 40.6553 72.8694L40.7614 71.875ZM36.05 80.9247C34.9669 80.3454 31.0736 78.258 26.9668 75.9277C22.8446 73.5886 18.5559 71.0316 16.6508 69.5069L16.0259 70.2877C18.0058 71.8722 22.3709 74.4696 26.4733 76.7974C30.5912 79.134 34.4932 81.2261 35.5784 81.8065L36.05 80.9247ZM16.6519 69.5078C16.0703 69.0397 15.6368 68.609 15.367 68.2132C15.0986 67.8195 15.022 67.5059 15.0643 67.2437L14.0771 67.0843C13.9796 67.6886 14.1891 68.2606 14.5407 68.7764C14.8908 69.2901 15.4111 69.7928 16.0249 70.2868L16.6519 69.5078ZM15.0647 67.2414C15.1188 66.8961 15.3867 66.59 15.7489 66.3389C16.0992 66.0962 16.4513 65.9658 16.5029 65.9478L16.1738 65.0035C16.0792 65.0365 15.6333 65.2023 15.1793 65.517C14.7371 65.8235 14.1943 66.336 14.0768 67.0866L15.0647 67.2414ZM16.5065 65.9465C17.4094 65.6241 18.3453 65.8635 19.1285 66.2555C19.9053 66.6443 20.454 67.1458 20.5289 67.216L21.2125 66.4861C21.106 66.3864 20.4763 65.8118 19.5761 65.3612C18.6823 64.9138 17.4428 64.5504 16.1702 65.0047L16.5065 65.9465ZM20.5289 67.216C20.5313 67.2183 20.5332 67.2201 20.5346 67.2214L21.222 66.495C21.2195 66.4927 21.2163 66.4897 21.2125 66.4862L20.5289 67.216ZM17.6109 65.3695C17.6422 65.2128 17.8507 64.2493 18.6957 63.8184L18.2414 62.9276C16.9373 63.5926 16.6625 65.0119 16.6302 65.1738L17.6109 65.3695ZM18.6969 63.8178C19.496 63.4076 20.6199 63.609 21.3864 64.4547L22.1274 63.7832C21.1007 62.6505 19.4971 62.2829 18.2402 62.9282L18.6969 63.8178ZM21.3864 64.4547C21.3879 64.4564 21.3894 64.4581 21.391 64.4597L22.1335 63.7899C22.1314 63.7877 22.1294 63.7854 22.1274 63.7832L21.3864 64.4547ZM93.4365 83.4985C93.8433 83.9497 94.0559 84.5169 94.0023 85.0804L94.9979 85.175C95.0817 84.2927 94.745 83.4563 94.1792 82.8288L93.4365 83.4985ZM86.1694 94.3495C85.1755 94.6499 84.1196 94.037 83.5631 92.9507L82.6731 93.4066C83.3616 94.7507 84.8388 95.7964 86.4588 95.3068L86.1694 94.3495ZM62.9798 73.5285C63.0921 73.436 63.2038 73.3572 63.3186 73.2936L62.834 72.4188C62.6539 72.5186 62.4916 72.635 62.3437 72.7569L62.9798 73.5285ZM45.2554 40.7872V45.9574H46.2554V40.7872H45.2554ZM45.2554 45.9574V49.4042H46.2554V45.9574H45.2554ZM50.3512 54.5H53.798V53.5H50.3512V54.5ZM58.8937 49.4042V45.9574H57.8937V49.4042H58.8937ZM58.8937 45.9574V40.7872H57.8937V45.9574H58.8937ZM45.7554 49.9042L58.3937 49.9042V48.9042L45.7554 48.9042V49.9042ZM45.7554 46.4574H58.3937V45.4574H45.7554V46.4574ZM53.798 54.5C56.6123 54.5 58.8937 52.2185 58.8937 49.4042H57.8937C57.8937 51.6662 56.06 53.5 53.798 53.5V54.5ZM45.2554 49.4042C45.2554 52.2185 47.5369 54.5 50.3512 54.5V53.5C48.0891 53.5 46.2554 51.6662 46.2554 49.4042H45.2554ZM30.6204 41.4774L13.3864 48.9454L13.784 49.863L31.0181 42.3949L30.6204 41.4774ZM26.9192 33.4085L13.132 29.9617L12.8895 30.9318L26.6767 34.3787L26.9192 33.4085ZM71.9822 42.3949L89.2162 49.863L89.6138 48.9454L72.3798 41.4774L71.9822 42.3949ZM76.3235 34.3787L90.1107 30.9318L89.8682 29.9617L76.081 33.4085L76.3235 34.3787Z" fill="#27aae1"/>
<path d="M52.0744 0C41.2872 0 32.5425 8.74474 32.5425 19.5319C32.5425 25.2888 35.0331 30.464 38.9956 34.0387C39.6505 34.6295 40.2887 35.2418 40.8394 35.9308L43.8773 39.7311C44.4804 40.4855 44.8872 41.3705 45.0703 42.3075C45.192 42.9302 45.6952 43.4493 46.3297 43.4493H57.8191C58.4536 43.4493 58.9568 42.9302 59.0785 42.3075C59.2616 41.3705 59.6684 40.4855 60.2715 39.7311L63.3094 35.9308C63.8601 35.2418 64.4983 34.6295 65.1531 34.0387C69.1157 30.464 71.6063 25.2888 71.6063 19.5319C71.6063 8.74474 62.8616 0 52.0744 0Z" fill="#27aae1"/>
<path d="M48.6278 36.1914L40.5852 19.5319M55.5214 36.1914L63.5639 19.5319" stroke="white" stroke-linecap="round" stroke-linejoin="round"/>
<path d="M41.7341 16.0851L45.1809 12.6383L48.6277 16.0851L52.0746 12.6383L55.5214 16.0851L58.9682 12.6383L62.415 16.0851" stroke="#27aae1" stroke-linecap="round" stroke-linejoin="round"/>
</svg>
