<svg width="33" height="32" viewBox="0 0 33 32" fill="none" xmlns="http://www.w3.org/2000/svg">
<path d="M15.5 12C15.5 13.6569 14.1569 15 12.5 15C10.8431 15 9.5 13.6569 9.5 12C9.5 11.6494 9.56015 11.3128 9.67071 11C10.0825 9.83481 11.1938 9 12.5 9C13.8062 9 14.9175 9.83481 15.3293 11C15.4398 11.3128 15.5 11.6494 15.5 12Z" fill="white"/>
<path d="M23.5 12C23.5 13.6569 22.1569 15 20.5 15C18.8431 15 17.5 13.6569 17.5 12C17.5 11.6494 17.5602 11.3128 17.6707 11C18.0825 9.83481 19.1938 9 20.5 9C21.8062 9 22.9175 9.83481 23.3293 11C23.4398 11.3128 23.5 11.6494 23.5 12Z" fill="white"/>
<path d="M9.78216 15.9436L10.2599 15.7962C10.1953 15.5866 10.0015 15.4436 9.78216 15.4436V15.9436ZM9.12676 11.1625V11.6625C9.27192 11.6625 9.40992 11.5994 9.50489 11.4896C9.59987 11.3798 9.64244 11.2342 9.62156 11.0905L9.12676 11.1625ZM23.2178 15.9436V15.4436C22.9985 15.4436 22.8047 15.5866 22.7401 15.7962L23.2178 15.9436ZM20.6781 19.7226L20.357 19.3393V19.3393L20.6781 19.7226ZM23.8732 11.1625L23.3784 11.0905C23.3576 11.2342 23.4001 11.3798 23.4951 11.4896C23.5901 11.5994 23.7281 11.6625 23.8732 11.6625V11.1625ZM2.06136 27.0579L1.82259 26.6186L1.804 26.6287L1.78633 26.6404L2.06136 27.0579ZM30.9386 27.0579L31.2137 26.6404L31.196 26.6287L31.1774 26.6186L30.9386 27.0579ZM9.49604 9.48287C9.48638 9.2069 9.25482 8.99101 8.97885 9.00067C8.70288 9.01033 8.48699 9.24189 8.49665 9.51786L9.49604 9.48287ZM24.5034 9.51786C24.513 9.24189 24.2971 9.01033 24.0212 9.00067C23.7452 8.99101 23.5136 9.2069 23.504 9.48287L24.5034 9.51786ZM7.17701 24.2775L7.41578 24.7168L7.17701 24.2775ZM15.3293 11L14.8579 11.1666L15.3293 11ZM17.6707 11L18.1421 11.1666L17.6707 11ZM9.67071 11L10.1421 11.1666L9.67071 11ZM23.3293 11L22.8579 11.1666L23.3293 11ZM16.5 26.4516L16.5079 25.9517H16.5079L16.5 26.4516ZM9.30437 16.091C9.59831 17.044 10.3005 18.4456 11.468 19.6168C12.6438 20.7963 14.3081 21.7559 16.5 21.7559V20.7559C14.6285 20.7559 13.2069 19.9447 12.1762 18.9108C11.1372 17.8685 10.5122 16.614 10.2599 15.7962L9.30437 16.091ZM9.78216 15.4436C9.35408 15.4436 9.02254 15.2441 8.76894 14.8999C8.50617 14.5433 8.33908 14.0404 8.29367 13.5104C8.2481 12.9785 8.32996 12.4779 8.50182 12.132C8.66832 11.797 8.88114 11.6625 9.12676 11.6625V10.6625C8.38928 10.6625 7.88526 11.1256 7.60629 11.687C7.3327 12.2376 7.24047 12.9323 7.29732 13.5957C7.35431 14.261 7.56612 14.9533 7.96387 15.4931C8.37079 16.0454 8.98138 16.4436 9.78216 16.4436V15.4436ZM22.7401 15.7962C22.4506 16.7347 21.675 18.2356 20.357 19.3393L20.9991 20.1059C22.4923 18.8555 23.3609 17.1762 23.6956 16.091L22.7401 15.7962ZM20.357 19.3393C19.3784 20.1588 18.1066 20.7559 16.5 20.7559V21.7559C18.3765 21.7559 19.8694 21.052 20.9991 20.1059L20.357 19.3393ZM23.2178 16.4436C24.0186 16.4436 24.6292 16.0454 25.0361 15.4931C25.4339 14.9533 25.6457 14.261 25.7027 13.5957C25.7595 12.9323 25.6673 12.2376 25.3937 11.687C25.1147 11.1256 24.6107 10.6625 23.8732 10.6625V11.6625C24.1189 11.6625 24.3317 11.797 24.4982 12.132C24.67 12.4779 24.7519 12.9785 24.7063 13.5104C24.6609 14.0404 24.4938 14.5433 24.2311 14.8999C23.9775 15.2441 23.6459 15.4436 23.2178 15.4436V16.4436ZM0.5 29.1058C0.5 30.6644 1.67198 32.0004 3.20337 32.0004V31.0004C2.30099 31.0004 1.5 30.1921 1.5 29.1058H0.5ZM1.78633 26.6404C0.977011 27.1734 0.5 28.1126 0.5 29.1058H1.5C1.5 28.4243 1.8279 27.8104 2.33639 27.4755L1.78633 26.6404ZM12.3219 19.7226C11.8419 19.5826 11.842 19.5825 11.842 19.5824C11.842 19.5824 11.842 19.5823 11.842 19.5823C11.842 19.5822 11.842 19.5822 11.842 19.5822C11.8421 19.5822 11.842 19.5823 11.842 19.5825C11.8418 19.583 11.8415 19.5839 11.8411 19.5852C11.8403 19.5879 11.839 19.5924 11.8371 19.5986C11.8333 19.611 11.8274 19.63 11.8194 19.6551C11.8033 19.7051 11.7789 19.7787 11.7464 19.8697C11.6811 20.0523 11.5844 20.3016 11.4588 20.569C11.1955 21.1297 10.8502 21.6704 10.4715 21.9199L11.0216 22.755C11.6487 22.342 12.0911 21.5753 12.364 20.9941C12.5065 20.6907 12.6151 20.4105 12.688 20.2063C12.7247 20.1039 12.7526 20.0198 12.7716 19.9605C12.7811 19.9308 12.7884 19.9073 12.7935 19.8907C12.796 19.8825 12.798 19.8759 12.7994 19.8712C12.8001 19.8688 12.8007 19.8669 12.8011 19.8655C12.8013 19.8648 12.8015 19.8642 12.8016 19.8637C12.8017 19.8635 12.8017 19.8633 12.8018 19.8631C12.8018 19.863 12.8018 19.8629 12.8019 19.8628C12.8019 19.8627 12.8019 19.8626 12.3219 19.7226ZM22.0147 22.7767L30.6999 27.4973L31.1774 26.6186L22.4922 21.8981L22.0147 22.7767ZM31.5 29.1058C31.5 30.1921 30.699 31.0004 29.7966 31.0004V32.0004C31.328 32.0004 32.5 30.6644 32.5 29.1058H31.5ZM30.6636 27.4755C31.1721 27.8104 31.5 28.4243 31.5 29.1058H32.5C32.5 28.1126 32.023 27.1734 31.2137 26.6404L30.6636 27.4755ZM20.6781 19.7226C20.1981 19.8626 20.1981 19.8627 20.1981 19.8628C20.1982 19.8629 20.1982 19.863 20.1982 19.8631C20.1983 19.8633 20.1983 19.8635 20.1984 19.8637C20.1985 19.8642 20.1987 19.8648 20.1989 19.8655C20.1993 19.8669 20.1999 19.8688 20.2006 19.8712C20.202 19.8759 20.204 19.8825 20.2065 19.8907C20.2116 19.9073 20.2189 19.9308 20.2284 19.9605C20.2474 20.0198 20.2753 20.1039 20.3119 20.2063C20.3849 20.4105 20.4935 20.6907 20.636 20.9941C20.9089 21.5753 21.3513 22.342 21.9784 22.755L22.5285 21.9199C22.1498 21.6704 21.8045 21.1297 21.5412 20.569C21.4156 20.3016 21.3189 20.0523 21.2536 19.8697C21.2211 19.7787 21.1967 19.7051 21.1806 19.6551C21.1726 19.63 21.1667 19.611 21.1629 19.5986C21.161 19.5924 21.1597 19.5879 21.1589 19.5852C21.1584 19.5839 21.1582 19.583 21.158 19.5825C21.158 19.5823 21.1579 19.5822 21.158 19.5822C21.158 19.5822 21.158 19.5822 21.158 19.5823C21.158 19.5823 21.158 19.5824 21.158 19.5824C21.158 19.5825 21.1581 19.5826 20.6781 19.7226ZM9.12676 11.1625C9.62156 11.0905 9.62156 11.0906 9.62157 11.0906C9.62157 11.0906 9.62157 11.0907 9.62157 11.0907C9.62158 11.0907 9.62158 11.0907 9.62158 11.0907C9.62159 11.0908 9.62159 11.0908 9.62158 11.0907C9.62156 11.0906 9.62153 11.0903 9.62147 11.0899C9.62135 11.0891 9.62114 11.0876 9.62085 11.0856C9.62027 11.0814 9.61936 11.0748 9.61814 11.0658C9.61572 11.0477 9.61211 11.0201 9.60761 10.9835C9.59862 10.9103 9.58609 10.8012 9.57243 10.6609C9.54509 10.3801 9.51327 9.97504 9.49604 9.48287L8.49665 9.51786C8.5147 10.0336 8.54809 10.4595 8.57714 10.7578C8.59167 10.9071 8.60513 11.0245 8.61507 11.1055C8.62005 11.146 8.62415 11.1773 8.62706 11.199C8.62852 11.2099 8.62968 11.2183 8.63051 11.2242C8.63093 11.2272 8.63126 11.2295 8.6315 11.2312C8.63162 11.2321 8.63172 11.2328 8.6318 11.2333C8.63184 11.2336 8.63187 11.2338 8.6319 11.234C8.63191 11.2341 8.63192 11.2342 8.63193 11.2342C8.63194 11.2343 8.63195 11.2343 8.63195 11.2343C8.63196 11.2344 8.63196 11.2344 9.12676 11.1625ZM23.8732 11.1625C24.368 11.2344 24.368 11.2344 24.3681 11.2343C24.3681 11.2343 24.3681 11.2343 24.3681 11.2342C24.3681 11.2342 24.3681 11.2341 24.3681 11.234C24.3681 11.2338 24.3682 11.2336 24.3682 11.2333C24.3683 11.2328 24.3684 11.2321 24.3685 11.2312C24.3687 11.2295 24.3691 11.2272 24.3695 11.2242C24.3703 11.2183 24.3715 11.2099 24.3729 11.199C24.3759 11.1773 24.38 11.146 24.3849 11.1055C24.3949 11.0245 24.4083 10.9071 24.4229 10.7578C24.4519 10.4595 24.4853 10.0336 24.5034 9.51786L23.504 9.48287C23.4867 9.97504 23.4549 10.3801 23.4276 10.6609C23.4139 10.8012 23.4014 10.9103 23.3924 10.9835C23.3879 11.0201 23.3843 11.0477 23.3819 11.0658C23.3806 11.0748 23.3797 11.0814 23.3792 11.0856C23.3789 11.0876 23.3787 11.0891 23.3785 11.0899C23.3785 11.0903 23.3784 11.0906 23.3784 11.0907C23.3784 11.0908 23.3784 11.0908 23.3784 11.0907C23.3784 11.0907 23.3784 11.0907 23.3784 11.0907C23.3784 11.0907 23.3784 11.0906 23.3784 11.0906C23.3784 11.0906 23.3784 11.0905 23.8732 11.1625ZM10.4819 22.7616C12.6483 24.1133 14.4436 24.8614 16.3351 24.8741C18.2235 24.8868 20.1256 24.1659 22.5065 22.7686L22.0004 21.9062C19.6737 23.2716 17.9607 23.885 16.3418 23.8741C14.7259 23.8632 13.1215 23.2299 11.0112 21.9132L10.4819 22.7616ZM10.5078 21.8981L6.93824 23.8382L7.41578 24.7168L10.9853 22.7767L10.5078 21.8981ZM6.93824 23.8382L1.82259 26.6186L2.30013 27.4973L7.41578 24.7168L6.93824 23.8382ZM15 12C15 13.3807 13.8807 14.5 12.5 14.5V15.5C14.433 15.5 16 13.933 16 12H15ZM12.5 14.5C11.1193 14.5 10 13.3807 10 12H9C9 13.933 10.567 15.5 12.5 15.5V14.5ZM23 12C23 13.3807 21.8807 14.5 20.5 14.5V15.5C22.433 15.5 24 13.933 24 12H23ZM20.5 14.5C19.1193 14.5 18 13.3807 18 12H17C17 13.933 18.567 15.5 20.5 15.5V14.5ZM12.5 9.5C13.5877 9.5 14.5144 10.195 14.8579 11.1666L15.8007 10.8334C15.3205 9.47466 14.0247 8.5 12.5 8.5V9.5ZM14.8579 11.1666C14.9498 11.4266 15 11.7069 15 12H16C16 11.5918 15.9299 11.1989 15.8007 10.8334L14.8579 11.1666ZM18 12C18 11.7069 18.0502 11.4266 18.1421 11.1666L17.1993 10.8334C17.0701 11.1989 17 11.5918 17 12H18ZM18.1421 11.1666C18.4856 10.195 19.4123 9.5 20.5 9.5V8.5C18.9753 8.5 17.6795 9.47466 17.1993 10.8334L18.1421 11.1666ZM15.3293 11.5H17.6707V10.5H15.3293V11.5ZM10 12C10 11.7069 10.0502 11.4266 10.1421 11.1666L9.19929 10.8334C9.07008 11.1989 9 11.5918 9 12H10ZM10.1421 11.1666C10.4856 10.195 11.4123 9.5 12.5 9.5V8.5C10.9753 8.5 9.67952 9.47466 9.19929 10.8334L10.1421 11.1666ZM20.5 9.5C21.5877 9.5 22.5144 10.195 22.8579 11.1666L23.8007 10.8334C23.3205 9.47466 22.0247 8.5 20.5 8.5V9.5ZM22.8579 11.1666C22.9498 11.4266 23 11.7069 23 12H24C24 11.5918 23.9299 11.1989 23.8007 10.8334L22.8579 11.1666ZM8.30134 23.8953C10.8706 25.8856 13.7456 26.9083 16.4921 26.9515L16.5079 25.9517C13.9992 25.9121 11.3298 24.9764 8.91375 23.1047L8.30134 23.8953ZM16.4921 26.9515C19.4775 26.9986 22.3001 25.8866 24.3722 23.6266L23.6351 22.9508C21.7692 24.9859 19.2275 25.9945 16.5079 25.9517L16.4921 26.9515ZM3.20337 32.0004H16.5V31.0004H3.20337V32.0004ZM16.5 32.0004H29.7966V31.0004H16.5V32.0004ZM16 26.4516L16 31.5004H17L17 26.4516H16Z" fill="#000"/>
<path d="M14.7107 9.05C19.5776 7.67766 20.1638 6.03819 21.4212 3.2C21.9804 6.31882 22.3158 9.05 25 9.05C25 9.05 25 0.5 16.5 0.5C8.00003 0.5 8 9.5 8 9.5C11.0277 9.10856 12.813 7.92433 14.7107 5.9V9.05Z" fill="#27aae1" stroke="#27aae1" stroke-linecap="round" stroke-linejoin="round"/>
<path d="M13.5 12C13.5 12.5523 13.0523 13 12.5 13C11.9477 13 11.5 12.5523 11.5 12C11.5 11.4477 11.9477 11 12.5 11C13.0523 11 13.5 11.4477 13.5 12Z" fill="#27aae1"/>
<path d="M21.5 12C21.5 12.5523 21.0523 13 20.5 13C19.9477 13 19.5 12.5523 19.5 12C19.5 11.4477 19.9477 11 20.5 11C21.0523 11 21.5 11.4477 21.5 12Z" fill="#000577"/>
</svg>
