<svg width="1440" height="416" viewBox="0 0 1440 416" fill="none" xmlns="http://www.w3.org/2000/svg">
<path opacity="0.2" d="M-130.268 4.04875C-19.3919 -3.04995 56.5899 120.863 298.804 131.665C541.019 142.467 543.248 83.2434 706.923 72.7644C870.597 62.2854 898.237 192.063 1062.67 181.535C1227.09 171.008 1353.49 145.376 1462.99 193.754M-129.651 16.6387C-18.7746 9.54004 57.2073 133.453 299.422 144.255C541.636 155.057 543.866 95.8334 707.54 85.3544C871.214 74.8753 898.854 204.653 1063.28 194.125C1227.71 183.598 1354.11 157.966 1463.6 206.344M-129.03 29.2284C-18.1543 22.1297 57.8275 146.043 300.042 156.845C542.257 167.647 544.486 108.423 708.16 97.944C871.834 87.465 899.474 217.242 1063.9 206.715C1228.33 196.188 1354.73 170.556 1464.22 218.934M-128.41 41.818C-17.5341 34.7193 58.4478 158.632 300.662 169.434C542.877 180.236 545.106 121.013 708.781 110.534C872.455 100.055 900.095 229.832 1064.52 219.305C1228.95 208.777 1355.35 183.145 1464.84 231.523M-127.79 54.4077C-16.9138 47.309 59.0681 171.222 301.283 182.024C543.497 192.826 545.726 133.602 709.401 123.123C873.075 112.644 900.715 242.422 1065.14 231.894C1229.57 221.367 1355.97 195.735 1465.46 244.113M-127.17 66.9973C-16.2935 59.8986 59.6883 183.812 301.903 194.614C544.117 205.415 546.347 146.192 710.021 135.713C873.695 125.234 901.335 255.011 1065.76 244.484C1230.19 233.957 1356.59 208.325 1466.08 256.703M-126.549 79.5869C-15.6733 72.4882 60.3086 196.401 302.523 207.203C544.738 218.005 546.967 158.782 710.641 148.303C874.316 137.824 901.955 267.601 1066.38 257.074C1230.81 246.546 1357.21 220.914 1466.7 269.292M-125.929 92.1766C-15.053 85.0779 60.9289 208.991 303.143 219.793C545.358 230.595 547.587 171.371 711.262 160.892C874.936 150.413 902.576 280.191 1067 269.663C1231.43 259.136 1357.83 233.504 1467.33 281.882M-125.312 104.767C-14.4357 97.6679 61.5462 221.581 303.761 232.383C545.975 243.185 548.205 183.961 711.879 173.482C875.553 163.003 903.193 292.781 1067.62 282.253C1232.05 271.726 1358.45 246.094 1467.94 294.472M-124.691 117.356C-13.8154 110.258 62.1664 234.171 304.381 244.972C546.595 255.774 548.825 196.551 712.499 186.072C876.173 175.593 903.813 305.37 1068.24 294.843C1232.67 284.316 1359.07 258.683 1468.56 307.062M-124.071 129.946C-13.1951 122.847 62.7867 246.76 305.001 257.562C547.216 268.364 549.445 209.141 713.119 198.661C876.794 188.182 904.434 317.96 1068.86 307.433C1233.29 296.905 1359.69 271.273 1469.18 319.651M-123.451 142.535C-12.5749 135.437 63.407 259.35 305.621 270.152C547.836 280.954 550.065 221.73 713.74 211.251C877.414 200.772 905.054 330.55 1069.48 320.022C1233.91 309.495 1360.31 283.863 1469.8 332.241M-122.831 155.125C-11.9546 148.026 64.0272 271.939 306.242 282.741C548.456 293.543 550.686 234.32 714.36 223.841C878.034 213.362 905.674 343.139 1070.1 332.612C1234.53 322.085 1360.93 296.452 1470.42 344.83M-122.21 167.715C-11.3343 160.616 64.6475 284.529 306.862 295.331C549.077 306.133 551.306 246.909 714.98 236.43C878.654 225.951 906.294 355.729 1070.72 345.202C1235.15 334.674 1361.55 309.042 1471.04 357.42M-121.59 180.304C-10.7141 173.206 65.2678 297.119 307.482 307.921C549.697 318.723 551.926 259.499 715.601 249.02C879.275 238.541 906.915 368.318 1071.34 357.791C1235.77 347.264 1362.17 321.632 1471.66 370.01M-120.973 192.894C-10.0967 185.796 65.8851 309.709 308.1 320.511C550.314 331.313 552.544 272.089 716.218 261.61C879.892 251.131 907.532 380.908 1071.96 370.381C1236.39 359.854 1362.79 334.222 1472.28 382.6M-120.353 205.484C-9.47646 198.385 66.5054 322.298 308.72 333.1C550.934 343.902 553.164 284.679 716.838 274.2C880.512 263.721 908.152 393.498 1072.58 382.971C1237.01 372.443 1363.41 346.811 1472.9 395.189M-119.732 218.074C-8.85619 210.975 67.1256 334.888 309.34 345.69C551.555 356.492 553.784 297.268 717.458 286.789C881.133 276.31 908.773 406.088 1073.2 395.56C1237.63 385.033 1364.03 359.401 1473.52 407.779M-119.112 230.663C-8.23592 223.565 67.7459 347.478 309.96 358.28C552.175 369.082 554.404 309.858 718.079 299.379C881.753 288.9 909.393 418.677 1073.82 408.15C1238.25 397.623 1364.65 371.991 1474.14 420.369M-118.492 243.253C-7.61566 236.154 68.3662 360.067 310.581 370.869C552.795 381.671 555.025 322.448 718.699 311.969C882.373 301.49 910.013 431.267 1074.44 420.74C1238.87 410.212 1365.27 384.58 1474.76 432.958M-117.871 255.843C-6.99539 248.744 68.9864 372.657 311.201 383.459C553.415 394.261 555.645 335.037 719.319 324.558C882.993 314.079 910.633 443.857 1075.06 433.329C1239.49 422.802 1365.89 397.17 1475.38 445.548M-117.251 268.432C-6.37512 261.334 69.6067 385.247 311.821 396.048C554.036 406.85 556.265 347.627 719.939 337.148C883.614 326.669 911.254 456.446 1075.68 445.919C1240.11 435.392 1366.51 409.76 1476 458.138M-116.634 281.022C-5.75779 273.924 70.224 397.837 312.439 408.638C554.653 419.44 556.882 360.217 720.557 349.738C884.231 339.259 911.871 469.036 1076.3 458.509C1240.73 447.982 1367.13 422.35 1476.62 470.728M-116.014 293.612C-5.13753 286.513 70.8443 410.426 313.059 421.228C555.273 432.03 557.503 372.807 721.177 362.328C884.851 351.848 912.491 481.626 1076.92 471.099C1241.35 460.571 1367.75 434.939 1477.24 483.317M-115.393 306.202C-4.51726 299.103 71.4646 423.016 313.679 433.818C555.894 444.62 558.123 385.396 721.797 374.917C885.472 364.438 913.111 494.216 1077.54 483.688C1241.97 473.161 1368.37 447.529 1477.86 495.907M-114.773 318.791C-3.89699 311.692 72.0848 435.605 314.299 446.407C556.514 457.209 558.743 397.986 722.418 387.507C886.092 377.028 913.732 506.805 1078.16 496.278C1242.59 485.751 1368.99 460.118 1478.48 508.497M-114.153 331.381C-3.27673 324.282 72.7051 448.195 314.92 458.997C557.134 469.799 559.364 410.575 723.038 400.096C886.712 389.617 914.352 519.395 1078.78 508.868C1243.21 498.34 1369.61 472.708 1479.1 521.086M-113.533 343.97C-2.65646 336.872 73.3254 460.785 315.54 471.587C557.754 482.389 559.984 423.165 723.658 412.686C887.332 402.207 914.972 531.985 1079.4 521.457C1243.83 510.93 1370.23 485.298 1479.72 533.676M-112.912 356.56C-2.03619 349.461 73.9456 473.374 316.16 484.176C558.375 494.978 560.604 435.755 724.278 425.276C887.953 414.797 915.593 544.574 1080.02 534.047C1244.45 523.52 1370.85 497.887 1480.34 546.265M-112.295 369.15C-1.41886 362.051 74.563 485.964 316.777 496.766C558.992 507.568 561.221 448.345 724.896 437.866C888.57 427.387 916.21 557.164 1080.64 546.637C1245.07 536.11 1371.47 510.477 1480.96 558.855M-111.675 381.74C-0.798596 374.641 75.1832 498.554 317.398 509.356C559.612 520.158 561.842 460.934 725.516 450.455C889.19 439.976 916.83 569.754 1081.26 559.226C1245.69 548.699 1372.09 523.067 1481.58 571.445M-111.054 394.329C-0.178329 387.231 75.8035 511.144 318.018 521.946C560.233 532.748 562.462 473.524 726.136 463.045C889.81 452.566 917.45 582.343 1081.88 571.816C1246.31 561.289 1372.71 535.657 1482.2 584.035M-110.434 406.919C0.441938 399.82 76.4238 523.733 318.638 534.535C560.853 545.337 563.082 486.114 726.756 475.635C890.431 465.156 918.071 594.933 1082.5 584.406C1246.93 573.878 1373.33 548.246 1482.82 596.624M-109.814 419.509C1.06221 412.41 77.044 536.323 319.259 547.125C561.473 557.927 563.702 498.703 727.377 488.224C891.051 477.745 918.691 607.523 1083.12 596.995C1247.55 586.468 1373.95 560.836 1483.44 609.214M-109.194 432.098C1.68247 425 77.6643 548.913 319.879 559.715C562.093 570.516 564.323 511.293 727.997 500.814C891.671 490.335 919.311 620.112 1083.74 609.585C1248.17 599.058 1374.57 573.426 1484.06 621.804M-108.573 444.688C2.30274 437.589 78.2846 561.502 320.499 572.304C562.714 583.106 564.943 523.883 728.617 513.404C892.292 502.925 919.931 632.702 1084.36 622.175C1248.79 611.647 1375.19 586.015 1484.68 634.393M-107.956 457.278C2.92007 450.179 78.9019 574.092 321.116 584.894C563.331 595.696 565.56 536.473 729.235 525.994C892.909 515.515 920.549 645.292 1084.98 634.765C1249.41 624.237 1375.81 598.605 1485.3 646.983M-107.336 469.868C3.54034 462.769 79.5222 586.682 321.737 597.484C563.951 608.286 566.181 549.062 729.855 538.583C893.529 528.104 921.169 657.882 1085.6 647.354C1250.03 636.827 1376.43 611.195 1485.92 659.573M-106.715 482.457C4.1606 475.358 80.1424 599.271 322.357 610.073C564.571 620.875 566.801 561.652 730.475 551.173C894.149 540.694 921.789 670.471 1086.22 659.944C1250.65 649.417 1377.05 623.784 1486.54 672.163M-106.095 495.047C4.78087 487.948 80.7627 611.861 322.977 622.663C565.192 633.465 567.421 574.242 731.095 563.762C894.77 553.283 922.41 683.061 1086.84 672.534C1251.27 662.006 1377.67 636.374 1487.16 684.752M-105.475 507.636C5.40114 500.538 81.383 624.451 323.597 635.253C565.812 646.055 568.041 586.831 731.716 576.352C895.39 565.873 923.03 695.651 1087.46 685.123C1251.89 674.596 1378.29 648.964 1487.78 697.342M-104.855 520.226C6.0214 513.127 82.0032 637.04 324.218 647.842C566.432 658.644 568.662 599.421 732.336 588.942C896.01 578.463 923.65 708.24 1088.08 697.713C1252.51 687.186 1378.91 661.553 1488.4 709.931M-104.234 532.816C6.64167 525.717 82.6235 649.63 324.838 660.432C567.053 671.234 569.282 612.01 732.956 601.531C896.631 591.052 924.27 720.83 1088.7 710.303C1253.13 699.775 1379.53 674.143 1489.02 722.521" stroke="url(#paint0_linear)" stroke-width="7"/>
<defs>
<linearGradient id="paint0_linear" x1="547.259" y1="89.5" x2="486.506" y2="821.999" gradientUnits="userSpaceOnUse">
<stop stop-color="white" stop-opacity="0"/>
<stop offset="1" stop-color="white"/>
</linearGradient>
</defs>
</svg>
