<svg width="32" height="32" viewBox="0 0 32 32" fill="none" xmlns="http://www.w3.org/2000/svg">
<path d="M16 32C18.2091 32 20 30.2091 20 28H12C12 30.2091 13.7908 32 16 32Z" fill="#000"/>
<path d="M8.91548 5.48876C10.588 3.36017 13.1403 2 16 2C18.8597 2 21.412 3.36017 23.0845 5.48876C23.9485 6.58844 23.0049 8 21.6063 8H10.3936C8.99511 8 8.05144 6.58844 8.91548 5.48876Z" fill="#000"/>
<path d="M16.0001 0.5C10.5164 0.5 5.86016 4.38553 5.86016 9.17857V15.9379C5.86016 18.7408 4.69623 21.4484 2.58456 23.5578L1.33952 24.8015C0.0911844 26.0484 1.10435 28 3.00006 28H29.0846C30.9803 28 31.9935 26.0485 30.7451 24.8015L29.5001 23.5578C27.3884 21.4484 26.2245 18.7408 26.2245 15.9379V9.17857C26.2245 4.38553 22.034 0.5 16.0001 0.5Z" stroke="#000" stroke-linecap="round" stroke-linejoin="round"/>
</svg>
