<svg width="32" height="32" viewBox="0 0 32 32" fill="none" xmlns="http://www.w3.org/2000/svg">
<path d="M27.9688 13.9094C27.9688 13.4421 27.6288 13.0442 27.1678 12.967C23.6017 12.37 21.215 11.8256 18.5297 12.8725C18.2029 12.9999 18 13.3227 18 13.6734C18 14.3092 18.6443 14.745 19.2602 14.5872C21.6592 13.9725 23.8389 14.3907 26.8887 14.8447C27.4591 14.9295 27.9688 14.4861 27.9688 13.9094Z" fill="#27aae1"/>
<path d="M4 17.5344C4 17.0671 4.33995 16.6692 4.8009 16.592C8.36709 15.995 10.7537 15.4506 13.4391 16.4975C13.7658 16.6249 13.9688 16.9477 13.9688 17.2984C13.9688 17.9342 13.3244 18.37 12.7085 18.2122C10.3096 17.5975 8.12982 18.0157 5.08 18.4697C4.50967 18.5545 4 18.1111 4 17.5344Z" fill="#27aae1"/>
<path d="M27.9688 17.5344C27.9688 17.0671 27.6288 16.6692 27.1678 16.592C23.6017 15.995 21.215 15.4506 18.5297 16.4975C18.2029 16.6249 18 16.9477 18 17.2984C18 17.9342 18.6443 18.37 19.2602 18.2122C21.6592 17.5975 23.8389 18.0157 26.8887 18.4697C27.4591 18.5545 27.9688 18.1111 27.9688 17.5344Z" fill="#27aae1"/>
<path d="M4 21.1594C4 20.6921 4.33995 20.2942 4.8009 20.217C8.36709 19.62 10.7537 19.0756 13.4391 20.1225C13.7658 20.2499 13.9688 20.5727 13.9688 20.9234C13.9688 21.5592 13.3244 21.995 12.7085 21.8372C10.3096 21.2225 8.12982 21.6407 5.08 22.0947C4.50967 22.1795 4 21.7361 4 21.1594Z" fill="#27aae1"/>
<path d="M4 13.9094C4 13.4421 4.33995 13.0442 4.8009 12.967C8.36709 12.37 10.7537 11.8256 13.4391 12.8725C13.7658 12.9999 13.9688 13.3227 13.9688 13.6734C13.9688 14.3092 13.3244 14.745 12.7085 14.5872C10.3096 13.9725 8.12982 14.3907 5.08 14.8447C4.50967 14.9295 4 14.4861 4 13.9094Z" fill="#27aae1"/>
<path d="M27.9688 21.1594C27.9688 20.6921 27.6288 20.2942 27.1678 20.217C23.6017 19.62 21.215 19.0756 18.5297 20.1225C18.2029 20.2499 18 20.5727 18 20.9234C18 21.5592 18.6443 21.995 19.2602 21.8372C21.6592 21.2225 23.8389 21.6407 26.8887 22.0947C27.4591 22.1795 27.9688 21.7361 27.9688 21.1594Z" fill="#27aae1"/>
<path d="M29.2571 9.96337V26.7637C29.2571 27.8895 28.2417 28.7386 27.1358 28.5279C23.7065 27.8746 21.1699 27.3958 17.6571 28.3753M29.2571 9.96337C23.4948 8.94405 19.9591 7.83924 16 9.96337M29.2571 9.96337C29.9436 9.96337 30.5 10.5198 30.5 11.2062V28.6877C30.5 29.6887 29.6885 30.5002 28.6875 30.5002H17.6571M2.74286 9.96337V26.9901C2.74286 28.036 3.62661 28.8654 4.66743 28.763C8.29695 28.4058 11.0341 27.8514 14.3429 28.5033M2.74286 9.96337C7.91947 9.41594 10.8221 7.90716 16 9.96337M2.74286 9.96337C2.05645 9.96337 1.5 10.5198 1.5 11.2062V28.6877C1.5 29.6887 2.31149 30.5002 3.3125 30.5002H14.3429M16 9.96337V28.9204M16 28.9204C15.4285 28.7458 14.8782 28.6088 14.3429 28.5033M16 28.9204C16.5787 28.7028 17.1289 28.5226 17.6571 28.3753M17.6571 30.5002H14.3429M17.6571 30.5002V28.3753M14.3429 30.5002V28.5033M16 6.48438V1.5M13.7344 7.39062L10.1094 2.85938M18.2656 7.39062L21.8906 2.85938" stroke="#27aae1" stroke-linecap="round" stroke-linejoin="round"/>
</svg>
