<svg width="32" height="32" viewBox="0 0 32 32" fill="none" xmlns="http://www.w3.org/2000/svg">
<path d="M28.5 1.5C29.6046 1.5 30.5 2.39543 30.5 3.5L30.5 12.5C30.5 13.6046 29.6046 14.5 28.5 14.5L19.5 14.5C18.3954 14.5 17.5 13.6046 17.5 12.5L17.5 3.5C17.5 2.39543 18.3954 1.5 19.5 1.5L28.5 1.5Z" fill="#fff" stroke="#f"/>
<path d="M12.5 1.49997C13.6046 1.49997 14.5 2.3954 14.5 3.49997V12.5C14.5 13.6045 13.6046 14.5 12.5 14.5H3.5C2.39543 14.5 1.5 13.6045 1.5 12.5L1.5 3.49997C1.5 2.3954 2.39543 1.49997 3.5 1.49997L12.5 1.49997Z" stroke="#fff"/>
<path d="M12.5 17.5C13.6046 17.5 14.5 18.3954 14.5 19.5V28.5C14.5 29.6045 13.6046 30.5 12.5 30.5H3.5C2.39543 30.5 1.5 29.6045 1.5 28.5L1.5 19.5C1.5 18.3954 2.39543 17.5 3.5 17.5L12.5 17.5Z" stroke="#fff"/>
<path d="M28.5 17.5C29.6046 17.5 30.5 18.3954 30.5 19.5L30.5 28.5C30.5 29.6045 29.6046 30.5 28.5 30.5H19.5C18.3954 30.5 17.5 29.6045 17.5 28.5V19.5C17.5 18.3954 18.3954 17.5 19.5 17.5H28.5Z" stroke="#fff"/>
</svg>
