<svg width="32" height="32" viewBox="0 0 32 32" fill="none" xmlns="http://www.w3.org/2000/svg">
<path d="M20.1781 19.7222C21.5836 18.5452 22.4057 16.9551 22.7178 15.9432C25.1756 15.9432 25.3394 11.1621 23.3732 11.1621C23.3732 11.1621 23.4684 10.5079 23.5037 9.5M20.1781 19.7222C19.1239 20.6051 17.7415 21.2556 16 21.2556C11.9365 21.2556 9.82832 17.714 9.28216 15.9432C6.82444 15.9432 6.66056 11.1621 8.62676 11.1621C8.62676 11.1621 8.53163 10.5079 8.49634 9.5M20.1781 19.7222C20.1781 19.7222 20.7477 21.6746 21.7535 22.3371M10.2465 22.3371L1.56136 27.0576C0.902454 27.4916 0.5 28.2681 0.5 29.1054C0.5 30.4279 1.48648 31.5 2.70337 31.5H29.2966C30.5135 31.5 31.5 30.4279 31.5 29.1054C31.5 28.2681 31.0975 27.4916 30.4386 27.0576L21.7535 22.3371M10.2465 22.3371C11.2523 21.6746 11.8219 19.7222 11.8219 19.7222M10.2465 22.3371C14.5254 25.8044 17.0382 25.925 21.7535 22.3371" stroke="#fff" stroke-linecap="round" stroke-linejoin="round"/>
<path d="M14.0002 10C19.4396 8.47518 20.0949 6.65355 21.5002 3.5L21.5126 3.56879C22.1298 6.99132 22.4797 8.93195 25.0002 10C25.0002 10 26.5002 0.5 16.5002 0.5C6.50023 0.5 7.00023 10 7.00023 10C10.3842 9.56507 11.8792 8.74926 14.0002 6.5V10Z" fill="#fff" stroke="#fff" stroke-linecap="round" stroke-linejoin="round"/>
<path d="M14 12C14 12.5523 13.5523 13 13 13C12.4477 13 12 12.5523 12 12C12 11.4477 12.4477 11 13 11C13.5523 11 14 11.4477 14 12Z" fill="#fff"/>
<path d="M20 12C20 12.5523 19.5523 13 19 13C18.4477 13 18 12.5523 18 12C18 11.4477 18.4477 11 19 11C19.5523 11 20 11.4477 20 12Z" fill="#fff"/>
</svg>
