<svg width="32" height="32" viewBox="0 0 32 32" fill="none" xmlns="http://www.w3.org/2000/svg">
<path d="M25.0322 11V20.2415C25.0322 21.061 24.3679 21.7253 23.5484 21.7253H12.5322V11H25.0322Z" fill="#27aae1"/>
<path d="M6 20.2415V11H11.5322V21.7253H7.48387C6.66435 21.7253 6 21.061 6 20.2415Z" fill="#27aae1"/>
<path d="M17 13.5C17 13.7761 17.2239 14 17.5 14H21.5C21.7761 14 22 13.7761 22 13.5C22 13.2239 21.7761 13 21.5 13H17.5C17.2239 13 17 13.2239 17 13.5Z" fill="#27aae1"/>
<path d="M6.35355 3.35355C6.54882 3.15829 6.54882 2.84171 6.35355 2.64645C6.15829 2.45118 5.84171 2.45118 5.64645 2.64645L6.35355 3.35355ZM3.14645 5.14645C2.95118 5.34171 2.95118 5.65829 3.14645 5.85355C3.34171 6.04882 3.65829 6.04882 3.85355 5.85355L3.14645 5.14645ZM3.85355 2.64645C3.65829 2.45118 3.34171 2.45118 3.14645 2.64645C2.95118 2.84171 2.95118 3.15829 3.14645 3.35355L3.85355 2.64645ZM5.64645 5.85355C5.84171 6.04882 6.15829 6.04882 6.35355 5.85355C6.54882 5.65829 6.54882 5.34171 6.35355 5.14645L5.64645 5.85355ZM5 26C4.72386 26 4.5 26.2239 4.5 26.5C4.5 26.7761 4.72386 27 5 27V26ZM27 26.5L27.3536 26.8536C27.5488 26.6583 27.5488 26.3417 27.3536 26.1464L27 26.5ZM24.8536 23.6464C24.6583 23.4512 24.3417 23.4512 24.1464 23.6464C23.9512 23.8417 23.9512 24.1583 24.1464 24.3536L24.8536 23.6464ZM24.1464 28.6464C23.9512 28.8417 23.9512 29.1583 24.1464 29.3536C24.3417 29.5488 24.6583 29.5488 24.8536 29.3536L24.1464 28.6464ZM3.5 31H28.5V30H3.5V31ZM28.5 1H3.5V2H28.5V1ZM1 3.5V7H2V3.5H1ZM1 7V28.5H2V7H1ZM31 28.5V7H30V28.5H31ZM31 7V3.5H30V7H31ZM1.5 7.5H30.5V6.5H1.5V7.5ZM5.64645 2.64645L4.39645 3.89645L5.10355 4.60355L6.35355 3.35355L5.64645 2.64645ZM4.39645 3.89645L3.14645 5.14645L3.85355 5.85355L5.10355 4.60355L4.39645 3.89645ZM3.14645 3.35355L4.39645 4.60355L5.10355 3.89645L3.85355 2.64645L3.14645 3.35355ZM4.39645 4.60355L5.64645 5.85355L6.35355 5.14645L5.10355 3.89645L4.39645 4.60355ZM28.5 2C29.3284 2 30 2.67157 30 3.5H31C31 2.11929 29.8807 1 28.5 1V2ZM28.5 31C29.8807 31 31 29.8807 31 28.5H30C30 29.3284 29.3284 30 28.5 30V31ZM3.5 30C2.67157 30 2 29.3284 2 28.5H1C1 29.8807 2.11929 31 3.5 31V30ZM3.5 1C2.11929 1 1 2.11929 1 3.5H2C2 2.67157 2.67157 2 3.5 2V1ZM5 27H27V26H5V27ZM27.3536 26.1464L24.8536 23.6464L24.1464 24.3536L26.6464 26.8536L27.3536 26.1464ZM26.6464 26.1464L24.1464 28.6464L24.8536 29.3536L27.3536 26.8536L26.6464 26.1464Z" fill="#27aae1"/>
</svg>
